<svg width="453" height="349" viewBox="0 0 453 349" fill="none" xmlns="http://www.w3.org/2000/svg">
<path fill-rule="evenodd" clip-rule="evenodd" d="M141.219 158.093C142.868 174.736 144.516 191.379 146.164 208.021C155.138 202.901 164.113 197.78 173.087 192.659V230.574V240.54C173.087 241.421 172.564 244.451 173.087 245.214C173.531 245.862 176.82 245.88 177.597 245.99C182.671 246.7 187.757 247.332 192.851 247.895C206.275 249.377 220.643 251.501 234.118 249.797C245.832 248.317 257.187 244.15 267.889 239.302C271.646 237.601 275.351 235.779 278.987 233.832C279.758 233.42 282.556 232.445 282.975 231.605C283.318 230.919 282.514 228.508 282.407 227.786C281.955 224.745 281.503 221.704 281.051 218.663L274.735 176.199L286.666 188.113C287.601 189.046 289.375 191.696 290.669 192.11C291.617 192.414 293.965 191.475 294.903 191.294C301.658 189.992 308.414 188.69 315.17 187.389C316.744 187.086 320.291 187.097 321.618 186.146C322.332 185.634 322.366 184.592 322.618 183.604C324.266 177.149 325.914 170.694 327.561 164.239C327.858 163.076 329.514 159.41 329.093 158.239C328.942 157.819 328.211 157.532 327.764 157.258C317.568 151.031 307.371 144.803 297.175 138.575C291.589 135.164 286.003 131.752 280.418 128.34C278.078 126.911 275.204 124.336 272.553 123.537C270.907 123.04 268.513 123.412 266.81 123.364C263.349 123.265 259.888 123.166 256.427 123.067C255.886 123.052 253.988 122.666 253.532 122.985C253.152 123.251 253.309 123.621 253.185 124.254C252.881 125.8 252.878 127.468 252.728 129.037C252.608 130.297 252.847 132.607 252.279 133.747C251.917 134.476 252.377 134.185 251.886 134.538C251.302 134.957 249.437 134.822 248.742 134.903C245.351 135.296 241.959 135.69 238.568 136.084C234.536 136.552 230.459 137.431 226.408 137.026C220.267 136.414 213.646 136.444 207.616 135.15C206.048 134.814 205.484 133.931 204.275 132.724C201.916 130.368 199.58 127.984 197.195 125.653C196.025 124.511 196.526 124.704 195.321 125.138C193.811 125.681 192.279 126.991 190.912 127.824C185.674 131.014 180.436 134.205 175.198 137.395L143.22 156.874C142.553 157.28 141.886 157.686 141.219 158.093Z" fill="#0FA184"/>
<path fill-rule="evenodd" clip-rule="evenodd" d="M447.079 160.162C440.487 185.188 427.23 212.476 400.52 220.453C394.026 222.392 387.708 223.856 380.964 223.118C380.322 223.047 379.784 223.137 379.174 223.149C378.08 223.17 379.025 223.563 377.798 223.184C376.841 222.889 375.946 222.15 374.949 221.823C372.298 220.956 369.473 220.789 366.779 220.088C360.161 218.366 353.34 216.241 346.927 213.866C343.907 212.748 341.131 211.191 338.291 209.693C335.404 208.171 332.344 207.226 329.424 205.83C327.116 204.727 323.163 203.288 321.541 201.219C319.811 199.011 322.204 194.312 322.888 191.965C325.215 183.98 327.985 176.113 329.734 167.969C335.771 174.966 344.151 179.299 352.825 182.093C357.532 183.61 362.374 184.706 367.27 185.392C371.715 186.015 376.51 186.769 380.965 185.884C384.329 185.217 388.551 183.671 390.953 181.104C391.81 180.187 392.839 178.507 392.358 177.176C391.748 175.486 389.972 176.281 389.01 175.02C388.173 173.922 388.304 171.352 388.037 170.014C387.565 167.647 386.916 165.344 386.125 163.065C384.588 158.64 382.673 154.206 382.214 149.497C381.815 145.412 382.746 141.549 384.783 138.004C385.746 136.328 388.165 131.77 390.525 131.959C393.117 132.167 389.622 143.09 389.507 145.319C389.054 154.152 390.239 163.565 394.772 171.307C396.507 174.272 399.018 177.724 402.723 178.091C406.648 178.48 409.814 175.391 411.682 172.267C416.241 164.643 413.943 154.183 411.634 146.193C408.802 136.39 401.41 129.634 396.736 120.83C403.715 121.531 407.451 125.964 411.032 131.588C414.975 137.78 418.044 145.214 419.558 152.418C420.322 156.058 419.795 159.713 419.799 163.389C419.801 164.61 419.801 169.115 421.792 168.937C423.919 168.748 424.649 163.667 424.962 162.117C425.679 158.562 426.455 155.006 427.078 151.433C428.181 145.112 428.671 138.638 429.991 132.361C430.214 131.3 430.658 128.355 432.247 129.15C433.471 129.762 433.275 134.316 433.32 135.374C433.43 137.983 433.584 140.59 433.605 143.201C433.637 147.071 432.865 151.077 433.243 154.923C433.491 157.436 434.839 160.212 436.511 156.823C438.169 153.462 438.508 149.27 439.432 145.656C440.403 141.861 441.406 138.01 443.467 134.64C444.039 133.704 444.653 132.22 445.924 132.66C446.847 132.98 447.529 135.168 447.814 135.941C449.102 139.431 448.883 143.311 448.802 146.966C448.703 151.443 448.222 155.821 447.079 160.162ZM318.538 166.656C318.186 166.542 316.69 166.401 316.319 166.368C315.884 166.33 316.378 165.529 315.325 165.757C315.528 166.26 315.889 166.596 316.408 166.765C314.825 167.301 313.658 165.978 312.575 165.808C311.54 165.645 311.496 165.808 310.474 166.901C309.366 165.551 309.574 166.393 308.663 166.394C308.332 166.394 308.318 166.895 307.779 166.835C307.308 166.782 307.259 166.068 306.98 165.984C305.47 165.527 303.915 167.827 302.202 165.832C301.787 167.908 297.031 165.307 295.2 165.673C293.282 166.054 294.11 166.742 292.559 165.566C291.082 164.446 291.494 165.19 289.776 166.107C289.816 166.085 288.806 166.768 288.9 166.779C287.71 166.64 287.778 165.41 286.272 165.475C284.677 165.544 283.996 166.794 282.537 165.256C282.22 166.408 282.154 165.912 281.407 166.202C280.995 166.3 280.635 166.192 280.327 165.878C280.234 166.195 280.028 166.389 279.71 166.46C278.896 166.534 277.367 166.647 276.627 166.255C275.517 165.666 276.41 165.44 275.64 164.778C275.295 166.603 274.539 166.215 272.944 166.386C271.728 166.516 271.46 166.143 270.298 165.961C269.153 165.783 267.674 166.227 266.558 166.416C266.097 166.495 265.48 166.816 265.011 166.703C264.588 166.601 264.407 166.273 264.154 166.187C263.848 166.084 263.913 165.816 263.383 165.686C263.018 165.597 262.364 165.939 261.999 165.999C259.396 166.421 256.896 166.425 254.414 165.402C255.637 167.55 251.556 166.39 250.828 165.5C249.919 166.925 248.819 165.919 246.986 166.031C245.221 166.138 242.566 166.678 241.851 164.48C241.711 164.926 240.709 166.223 240.31 166.421C239.153 166.995 239.015 166.147 237.939 165.801C236.475 165.331 236.781 166.223 235.873 166.405C234.34 166.712 233.512 165.632 232.157 165.059C232.1 165.951 232.071 166.499 231.3 167.055C230.616 164.568 228.179 167.258 228.598 163.935C227.67 164.538 226.365 165.002 226.101 166.223C227.652 165.797 226.267 166.811 226.202 166.844C225.997 166.951 225.304 165.979 225.144 165.842C225.1 166.301 225.056 166.76 225.012 167.218C224.394 166.909 223.815 166.356 223.313 166.079C222.861 165.829 223.509 165.31 222.745 165.274C222.343 165.255 221.923 166.126 221.501 166.2C220.855 166.314 221.165 165.387 220.895 165.419C220.483 165.466 219.813 166.068 219.501 166.056C218.481 166.018 219.171 165.543 218.393 165.326C217.001 164.936 217.09 165.846 216.09 166.175C213.8 166.926 214.03 163.468 211.701 165.774C211.144 166.326 210.785 167.179 210.022 167.131C208.441 167.032 208.996 165.158 209.317 164.24C209.65 164.404 203.542 167.541 203.59 167.419C203.629 166.666 204.589 166.086 203.731 165.418C203.029 166.924 202.29 166.95 200.671 167.231C199.884 167.367 199.73 167.549 198.888 167.222C198.351 167.014 197.991 166.159 197.458 166.111C197.53 166.118 196.55 166.863 196.401 166.93C195.518 167.328 194.958 166.877 194.1 167.041C193.368 167.18 193.08 167.803 192.352 167.632C191.38 167.405 191.951 166.244 190.614 166.568C190.156 166.679 189.882 167.56 189.161 167.742C188.039 168.026 186.662 167.496 185.476 167.772C184.534 167.992 183.835 168.085 183.012 168.131C182.346 168.168 182.62 167.651 181.395 168.262L180.876 166.953C180.263 167.504 179.65 168.055 179.037 168.606C178.92 168.112 178.847 167.612 178.815 167.105C177.901 168.021 176.749 168.177 175.52 168.259C174.189 168.349 173.198 168.639 171.903 168.882C171.493 168.959 170.439 169.081 170.102 168.938C170.151 168.959 169.472 168.677 169.677 168.731C169.588 168.551 169.507 168.368 169.431 168.182C169.317 167.666 168.945 167.643 168.317 168.114C167.992 168.064 167.362 167.638 167.038 167.743C166.203 168.014 166.317 168.662 165.484 168.567C164.944 168.505 164.669 167.707 164.106 167.652C163.246 167.57 162.5 168.533 161.724 168.743C164.082 168.103 158.667 168.6 160.35 168.644C159.247 168.615 158.101 168.56 157.08 169.055C156.517 168.67 157.201 167.895 156.632 167.576C156.115 167.287 156.075 168.051 156.015 168.068C156.341 167.975 156.178 168.625 155.852 168.741C154.836 169.101 154.023 168.185 153.97 167.277C153.107 168.576 152.865 168.054 151.595 168.134C150.343 168.213 149.264 168.87 148.011 168.858C145.534 168.834 143.853 167.973 143.026 165.761C145.665 166.083 148.322 164.385 150.903 164.785C151.752 164.917 152.282 165.554 153.025 165.441C153.941 165.301 154.58 164.302 155.754 164.195C158.344 163.958 160.897 164.189 163.504 163.792C166.619 163.317 169.87 163.036 173.014 163.267C175.444 163.446 177.412 162.517 179.876 162.338C183.062 162.106 186.275 162.065 189.466 161.898C192.745 161.725 196.274 161.202 199.544 161.37C200.565 161.422 201.444 161.522 202.457 161.461C202.886 161.435 203.291 161.144 203.741 161.188C204.327 161.244 204.578 161.844 205.185 161.823C206.218 161.788 207.321 160.937 208.548 160.914C210.566 160.876 212.574 160.88 214.597 160.765C216.378 160.664 218.286 160.249 220.058 160.271C221.309 160.287 221.617 161.352 222.346 161.462C223.656 161.659 230.285 157.888 230.858 161.273C234.308 158.911 238.936 160.911 242.777 160.467C247.712 159.897 252.737 160.405 257.704 160.202C262.759 159.996 267.96 160.187 272.995 160.664C275.081 160.861 277.096 161.046 279.187 160.927C280.119 160.873 281.197 160.635 282.13 160.85C282.355 160.902 284.085 162.109 283.87 162.144C284.815 161.296 284.175 161.172 285.837 161.128C287.118 161.095 288.329 161.371 289.603 161.447C291.889 161.582 294.192 161.265 296.473 161.335C298.378 161.393 300.24 161.674 302.154 161.688C304.218 161.703 306.655 161.761 308.148 163.425C307.991 162.903 307.834 162.38 307.676 161.858C309.979 162.038 312.256 162.86 314.585 162.476C313.995 163.04 313.397 163.501 313.172 164.329C314.428 164.169 315.278 163.293 316.6 163.286C317.711 163.279 317.942 163.836 319.115 163.116C319.259 163.998 319.403 164.88 319.547 165.762C321.171 165.38 320.106 164.169 320.224 163.077C321.544 163.474 322.662 163.019 322.141 164.917C321.74 166.381 319.913 167.102 318.538 166.656ZM316.257 182.96C315.69 184.551 310.793 183.642 309.635 183.474C308.138 183.257 306.427 182.913 305.049 182.743C304.884 182.522 304.685 182.335 304.455 182.181C304.281 182.423 304.062 182.594 303.797 182.695C303.164 182.834 303.162 183.487 302.331 183.342C302.292 184.309 302.963 183.759 303.478 184.11C302.182 184.979 302.774 183.979 302.047 183.995C301.867 183.739 301.616 183.639 301.294 183.694C300.885 183.8 300.507 183.975 300.161 184.22C299.837 184.562 299.56 184.58 299.329 184.274C299.108 184.051 298.837 183.913 298.518 183.861C297.242 184.069 296.885 184.635 295.447 184.543C293.392 184.41 291.17 184.952 289.148 184.667C287.895 184.49 285.801 182.521 285.232 184.441C284.365 183.018 282.985 182.049 282.156 180.596C286.02 180.373 289.883 180.106 293.75 179.967C297.137 179.845 300.841 180.226 304.005 180.066C306.969 179.917 310.108 179.589 313.135 179.319C316.343 179.032 317.404 179.736 316.257 182.96ZM215.448 183.195C216.851 183.583 218.187 182.703 219.548 182.981C219.997 183.073 220.929 183.892 221.134 183.908C221.508 183.938 222.61 183.134 223.082 183.026C226.071 182.346 229.692 182.418 232.68 182.836C234.263 183.057 234.506 182.333 235.888 181.981C237.325 181.615 239.367 181.897 240.88 181.795C244.438 181.557 247.996 181.727 251.53 181.467C255.159 181.199 258.77 181.055 262.4 180.868C264.873 180.741 270.816 179.33 272.865 181.166C274.556 182.68 272.378 185.308 270.687 185.908C269.423 186.355 268.818 185.412 267.879 185.502C266.81 185.604 267.183 186.867 266.229 185.696C265.638 186.86 261.922 186.364 260.858 186.441C258.537 186.609 256.574 187.074 254.995 184.91C255.102 185.534 255.209 186.158 255.316 186.782C253.221 185.663 250.974 186.021 249.156 186.412C248.255 186.605 245.492 187.94 244.517 187.364C243.846 186.968 245.029 186.291 243.896 185.953C243.303 185.776 242.278 186.761 241.553 186.711C239.547 186.573 240.116 185.224 238.145 186.941C237.478 186.364 237.256 185.382 237.344 184.541C235.912 185.762 236.032 187.797 233.472 187.425C232.518 187.286 232.343 186.313 231.845 186.134C230.786 185.751 230.666 186.439 229.748 186.983C229.402 187.188 228.979 187.519 228.571 187.56C227.733 187.643 227.6 187.258 227.486 187.271C226.928 187.333 226.226 187.616 225.564 187.414C224.971 187.232 224.797 186.184 223.751 186.429C222.75 186.664 222.742 187.344 222.923 188.361C221.936 188.259 221.339 187.709 220.6 187.114C219.855 188.853 218.285 187.412 217.417 188.88C216.286 187.53 215.56 187.901 214.157 186.582C214.226 187.133 214.295 187.683 214.364 188.233C213.269 188.022 212.781 187.25 211.847 188.272C210.941 186.583 208.192 188.989 206.78 187.358C206.15 189.424 201.986 188.93 200.227 188.966C198.669 188.998 197.515 188.87 195.992 189.232C194.646 189.552 192.781 189.883 191.515 189.737C190.688 189.641 189.784 189.49 188.754 189.602C187.269 189.763 185.986 190.532 184.447 190.168C182.13 189.62 180.71 186.577 183.29 185.241C185.057 184.326 188.238 184.664 190.181 184.496C193.402 184.216 197.012 183.629 200.237 183.896C202.753 184.104 205.045 183.504 207.612 183.25C209.545 183.06 212.712 182.716 213.972 184.631C214.456 184.072 214.406 182.907 215.448 183.195ZM180.189 209.41C179.843 207.688 194.568 206.739 196.029 206.626C199.098 206.39 202.175 206.221 205.251 206.143C207.779 206.079 210.139 206.562 212.668 206.173C215.03 205.811 217.88 205.068 219.936 206.74C220.238 204.454 229.102 205.567 230.788 205.574C238.129 205.6 245.153 205.617 252.254 205.163C256.312 204.903 260.621 204.554 264.679 204.756C266.51 204.848 267.984 205.336 269.804 204.913C270.992 204.637 272.271 204.062 273.407 204.874C274.736 205.825 275.304 209.054 274.388 210.401C273.722 211.383 273.131 211.275 272.066 211.105C270.428 210.844 269.211 210.465 267.541 211.131C267.812 211.023 266.423 211.333 266.538 211.324C264.646 211.465 262.052 212.787 260.422 211.264C261.075 211.378 262.024 210.212 261.201 210.116C260.582 210.045 260.19 210.707 259.708 210.929C258.057 211.689 257.213 211.451 256.227 209.858C254.24 211.579 254.025 211.102 253.153 208.984C252.481 209.501 252.337 210.725 251.808 211.127C251.729 211.187 252.055 211.93 251.673 211.899C251.319 211.871 251.203 211.29 250.93 211.244C250.756 211.215 250.666 210.706 250.499 210.675C250.319 210.641 250.133 210.966 249.929 210.957C249.382 210.931 247.821 212.093 248.381 210.462C247.553 211.515 247.197 210.844 246.898 209.886C245.943 210.612 244.988 211.338 244.032 212.064C243.588 210.829 242.823 211.166 241.861 211.597C242.151 210.739 241.969 209.928 241.242 210.524C240.821 210.869 240.538 211.966 240.107 212.431C238.363 210.665 237.729 211.149 235.318 211.379C234.398 211.466 233.255 211.636 232.434 211.08C231.711 210.592 231.302 208.8 230.067 210.248C230.342 209.926 229.911 212.4 229.834 212.793C229.29 212.425 228.827 211.973 228.446 211.438C227.734 212.845 225.868 211.582 224.338 211.87C221.93 212.323 219.447 213.086 217.32 211.294C217.169 211.872 215.427 212.609 215.425 212.632C215.528 211.607 216.174 211.967 214.854 211.773C214.611 211.737 214.336 212.174 214.106 212.222C213.319 212.385 212.4 212.23 211.607 212.208C208.307 212.112 205.287 212.844 202.029 213.109C200.931 213.198 199.628 213.373 198.597 212.959C197.535 212.532 197.564 212.048 196.489 212.323C196.829 212.236 195.817 213.298 195.872 213.258C195.728 213.363 195.125 212.845 194.911 212.884C194.848 213.11 194.786 213.337 194.723 213.563C194.464 213.532 194.205 213.5 193.946 213.468C193.238 213.563 192.599 212.846 191.933 212.822C192.056 212.826 190.137 213.54 190.224 213.584C188.885 212.916 189.269 213.109 187.57 213.516C185.964 213.901 184.365 213.811 182.717 214.051C177.923 214.747 180.779 212.345 180.189 209.41ZM175.955 233.376C175.054 232.097 177.452 231.655 178.218 231.543C179.478 231.357 181.149 231.726 181.989 231.526C183.267 231.222 184.501 230.496 185.941 230.299C187.757 230.051 189.588 230.011 191.411 229.855C192.019 229.803 192.771 229.594 193.362 229.629C194.242 229.682 194.608 230.148 195.319 230.151C196.529 230.157 198.023 229.393 199.263 229.253C200.852 229.072 202.457 228.988 204.053 228.909C207.417 228.742 210.746 228.811 214.108 228.807C215.641 228.805 219.724 227.214 220.489 228.998C221.552 227.646 224.279 227.83 225.799 227.791C228.476 227.722 231.126 227.464 233.8 227.34C236.091 227.233 238.651 227.724 240.9 227.38C242.139 227.191 242.55 226.794 243.956 226.973C245.001 227.106 246.593 226.553 247.489 226.798C247.443 226.785 248.608 227.507 248.244 227.53C248.645 227.504 248.621 227.784 249.063 227.659C249.643 227.496 249.376 226.767 250.578 226.508C252.452 226.104 254.951 226.572 256.899 226.468C258.788 226.367 260.674 226.324 262.565 226.332C263.435 226.336 264.512 226.129 265.358 226.298C265.774 226.381 266.656 226.923 267.007 226.869C268.004 226.713 268.511 226.021 269.858 226.064C271.385 226.112 272.76 226.091 274.278 225.975C275.749 225.862 275.985 225.652 276.713 226.876C277.436 228.089 277.635 229.669 276.305 230.494C277.169 230.437 278.231 231.594 277.214 232.234C276.585 232.63 275.324 231.737 274.571 231.801C273.644 231.881 272.915 232.371 271.906 232.401C270.845 232.434 269.767 232.701 268.72 232.721C267.63 232.743 266.806 232.256 265.772 232.463C264.862 232.646 264.766 233.392 263.67 232.737C263.126 232.411 263.034 231.204 262.291 231.193C261.296 231.178 261.693 232.464 261.121 233.06C260.967 231.221 259.547 234.264 258.983 232.031C258.463 232.773 256.536 233.809 255.603 233.214C254.753 232.671 255.035 231.443 254.681 230.558C254.091 232.148 252.508 233.798 252.651 230.903C251.883 231.849 249.805 231.7 250.326 233.356C249.7 233.344 249.551 232.45 249.024 232.382C248.57 232.324 248.208 232.674 248.138 232.668C248.388 232.689 247.393 233.02 247.378 233.023C248.051 232.886 245.436 232.653 245.881 232.657C245.274 232.652 244.531 233.149 243.822 233.147C243.175 233.146 242.532 232.891 241.894 232.819C240.239 232.63 240.584 232.993 239.545 233.513C239.16 233.705 239.064 234.031 238.517 233.99C238.114 233.96 237.963 233.434 237.918 233.43C237.351 233.372 237.769 233.182 236.889 233.27C236.788 233.444 236.687 233.617 236.586 233.791C236.268 234.198 235.856 234.299 235.35 234.096C234.047 234.376 229.726 235.587 230.15 233.344C229.487 233.668 228.826 233.991 228.163 234.315C227.879 232.507 224.282 234.905 223.479 235.026C222.448 235.18 222.353 234.785 221.379 234.574C221.203 234.536 220.851 235.116 220.439 235.033C219.37 234.818 219.179 234.711 218.996 233.55C218.233 234.975 217.6 234.338 216.217 234.572C215.911 234.624 215.716 235.226 215.276 235.122C214.96 235.048 214.951 234.469 214.733 234.394C214.537 234.327 214.566 233.87 214.277 233.806C213.945 233.731 212.814 234.658 212.489 234.801C211.757 235.124 210.555 235.658 209.841 235.498C208.957 235.301 209.35 234.646 208.102 234.719C206.133 234.835 205.311 236.511 204.086 233.87C203.533 234.928 203.603 235.215 202.715 235.564C202.059 235.822 200.397 235.552 199.533 235.521C195.843 235.384 192.214 236.642 188.555 236.312C186.946 236.168 185.59 235.846 183.967 236.109C182.261 236.386 180.592 236.793 178.862 236.957C177.982 237.04 176.144 237.293 175.712 236.168C175.332 235.177 176.749 234.502 175.955 233.376ZM183.193 273.977C178.406 277.179 174.442 281.551 170.047 285.254C165.641 288.966 162.144 293.093 158.181 297.204C154.517 301.003 151.152 304.599 146.722 307.47C143.919 309.288 141.419 311.524 138.54 313.238C136.383 314.521 133.116 316.209 134.168 312.284C135.247 308.261 137.237 304.195 138.966 300.438C141.424 295.098 143.9 289.807 146.559 284.568C147.559 282.599 148.118 280.64 149.703 279.072C151.427 277.365 152.635 275.137 154.523 273.525C162.467 266.743 174.439 271.982 183.193 273.977ZM198.208 276.276C196.036 277.414 193.606 277.696 191.305 278.449C189.344 279.09 187.521 280.23 185.412 280.315C187.332 278.873 188.981 276.915 191.146 275.821C193.58 274.59 195.79 275.486 198.208 276.276ZM293.508 285.761C285.521 283.066 278.086 279.095 270.307 275.9C268.964 275.348 258.463 271.889 258.676 270.243C266.035 268.895 273.614 266.581 280.991 269.104C287.702 271.399 293.16 276.903 298.355 281.51C299.711 282.712 308.093 288.186 307.343 289.93C306.824 291.138 302.785 290.808 301.831 290.561C300.599 290.24 299.889 289.492 298.922 288.67C297.307 287.298 295.519 286.439 293.508 285.761ZM278.764 240.739C279.978 239.623 280.704 237.93 281.862 236.899C283.351 235.576 285.754 236.22 287.381 236.908C292.264 238.972 296.439 242.441 301.292 244.594C306.671 246.98 311.327 250.169 316.178 253.456C320.613 256.459 325.407 258.946 329.933 261.813C334.546 264.735 339.709 266.634 344.385 269.452C349.143 272.32 353.883 275.2 358.456 278.36C366.61 283.996 375.1 289.784 381.132 297.797C384.233 301.916 387.135 306.587 389.41 311.212C391.478 315.417 393.722 321.253 391.042 325.627C388.468 329.827 384.081 333.136 380.367 336.27C378.961 337.456 377.623 338.898 375.8 339.413C373.583 340.038 370.996 339.865 368.716 340.05C356.525 341.039 345.167 340.105 333.153 337.925C321.568 335.823 309.935 334.646 298.262 333.184C291.676 332.36 285.092 331.4 278.596 330.027C275.819 329.441 272.993 328.764 270.276 327.964C267.903 327.266 265.908 325.729 263.468 325.12C253.113 322.534 241.265 321.545 231.013 317.196C240.085 313.426 249.726 311.148 259.024 308.015C268.81 304.718 278.367 301.951 288.682 301.014C293.99 300.532 298.74 299.177 303.846 297.758C308.711 296.406 313.791 295.992 318.789 295.386C321.011 295.117 327.354 295.52 328.091 292.615C329.187 288.289 322.955 287.79 320.298 288.178C316.53 288.727 313.422 289.668 310.538 286.576C307.593 283.419 304.731 280.186 301.733 277.069C296.173 271.288 290.442 264.603 282.583 262.01C272.996 258.846 261.877 261.849 252.311 263.648C242.206 265.548 232.118 267.368 222.203 270.13C218.097 271.274 212.802 273.793 208.541 273.389C204.341 272.989 199.584 272.302 195.526 271.091C193.689 270.543 192.18 269.527 190.537 268.581C188.4 267.349 186.059 266.56 183.791 265.603C179.206 263.667 174.736 261.885 169.789 261.124C165.623 260.483 161.199 260.103 157.162 261.564C153.201 262.997 149.691 265.914 146.928 269.03C143.926 272.416 141.445 276.21 138.985 279.993C137.804 281.809 136.362 283.393 135.139 285.168C134.112 286.659 133.512 288.315 132.425 289.763C129.993 293.005 128.342 297.151 126.868 300.922C125.23 305.109 123.411 310.09 123.802 314.646C123.949 316.368 124.104 318.649 124.77 320.245C125.617 322.276 126.825 322.225 128.567 322.991C131.559 324.306 132.398 327.944 136.264 327.235C139.89 326.57 143.036 323.582 145.681 321.199C149.13 318.096 152.431 314.823 155.73 311.562C159.117 308.215 162.454 304.503 165.147 300.566C166.208 299.016 167.034 297.265 168.287 295.854C169.883 294.056 171.675 293.84 173.843 293.124C192.794 286.863 211.836 280.823 231.379 276.689C236.061 275.698 240.781 274.42 245.38 273.102C250.258 271.704 252.784 273.181 256.81 275.843C265.221 281.404 275.163 285.321 284.528 288.949C287.477 290.092 292.172 290.164 294.478 292.417C280.813 294.5 267.791 298.508 254.611 302.5C248.113 304.467 241.54 306.173 235.017 308.054C228.492 309.937 222.215 312.376 215.779 314.498C209.374 316.61 202.605 317.472 196.139 319.42C189.537 321.408 182.963 322.776 176.187 323.985C169.345 325.206 162.55 326.615 155.685 327.708C152.541 328.208 149.399 328.727 146.29 329.415C143.248 330.089 140.309 331.703 137.252 332.076C123.6 333.747 110.216 337.469 96.6173 339.572C86.4634 341.143 68.7986 343.334 62.2142 333.147C55.5929 322.902 63.7161 310.952 70.9639 303.627C75.4681 299.074 80.5297 295.068 85.8401 291.503C91.5233 287.688 96.9913 283.569 102.676 279.76C115.54 271.14 129.489 264.109 143.31 257.183C149.943 253.858 156.353 250.293 162.806 246.644C166.008 244.833 167.781 247.755 170.313 249.741C172.304 251.304 175.961 255.155 178.747 253.374C178.854 254.015 178.961 254.656 179.069 255.298C179.885 254.926 180.701 254.554 181.517 254.182C182.065 255.62 182.001 256.513 183.533 257.268C184.473 257.732 186.479 258.29 187.376 257.473C187.559 258.041 187.742 258.608 187.925 259.175C188.708 259.115 188.86 256.873 189.008 256.348C190.351 258.31 192.209 259.95 194.57 260.504C194.581 260.376 194.186 258.764 194.203 258.754C194.95 258.297 195.892 260.255 196.288 260.675C197.601 262.064 198.384 261.849 199.834 260.727C199.94 260.841 200.431 262.122 200.502 262.099C200.816 262 201.412 260.864 201.478 260.761C201.387 262.254 204.269 262.555 205.288 262.235C205.059 261.797 204.831 261.36 204.603 260.922C208.149 260.449 209.541 264.216 212.945 264.025C215.461 263.883 213.443 263.333 214.867 262.255C216.11 261.314 216.332 263.373 216.454 263.308C216.691 263.059 216.875 262.774 217.006 262.451C217.466 264.215 221.132 265.797 220.753 262.897C222.195 263.474 223.219 264.431 224.815 264.633C226.754 264.879 228.826 264.467 230.761 264.307C234.931 263.96 238.861 263.109 242.619 261.199C244.848 260.067 247.22 259.039 249.314 257.673C251.067 256.529 254.393 253.058 256.727 254.553C256.129 252.789 258.943 254.423 259.033 252.152C259.485 252.493 259.937 252.833 260.389 253.174C260.66 252.58 260.584 251.643 260.947 251.125C261.446 250.414 261.689 250.833 262.114 250.433C262.59 249.985 263.005 248.786 263.575 248.445C264.162 248.093 264.854 248.512 265.486 248.205C266.449 247.738 270.589 243.172 269.888 247.084C271.669 246.479 270.296 245.926 270.518 244.739C270.965 242.362 272.052 244.073 273.135 244.28C274.908 244.62 274.873 243.154 275.862 242.089C276.764 241.115 278.462 240.68 277.877 238.99C278.545 239.35 278.687 240.055 278.764 240.739ZM171.87 189.959C170.473 191.515 169.427 190.85 167.874 190.622C167.708 190.065 167.424 189.988 167.022 190.39C166.562 190.655 166.067 190.829 165.537 190.912C164.264 191.226 162.941 191.092 161.695 191.568C161.731 191.151 162.169 190.409 161.888 189.985C160.578 190.891 159.766 191.468 158.157 191.485C156.853 191.499 154.565 190.503 153.482 191.693C153.449 191.23 153.415 190.767 153.382 190.303C152.852 190.567 152.391 190.921 151.998 191.364C151.924 190.677 151.883 190.158 151.429 189.603C150.568 191.374 149.624 191.416 147.951 190.739C148.186 190.834 146.276 189.715 146.349 190.025C145.746 187.482 155.275 187.692 156.275 187.591C158.773 187.339 161.271 187.192 163.773 186.962C166.146 186.744 167.917 186.374 169.56 188.354C168.828 185.494 175.752 185.636 171.87 189.959ZM62.615 145.611C62.8775 149.935 63.8397 154.53 62.1587 158.691C60.8072 162.036 58.1114 165.813 55.2074 167.996C49.2611 172.464 44.221 166.996 43.3934 160.986C42.5306 154.717 44.2407 147.058 49.6384 143.193C52.8636 140.883 55.9867 141.043 59.7001 141.803C60.5722 141.981 61.9879 141.913 62.4865 142.779C62.6035 142.982 62.4986 145.607 62.615 145.611ZM141.591 203.212C140.564 203.731 139.489 204.034 138.583 204.739C138.269 204.985 138.162 205.543 137.828 205.749C137.22 206.124 136.352 205.875 135.719 206.185C134.671 206.697 133.92 207.43 132.675 207.902C130.825 208.603 129.203 209.564 127.455 210.476C124.543 211.994 121.417 213.298 118.372 214.534C116.835 215.158 112.584 216.375 112.731 218.625C112.387 218.718 112.035 217.966 111.318 218.026C110.332 218.108 109.03 219.247 108.007 219.528C106.093 220.052 104.611 220.098 104.611 222.538C104.002 222.124 103.848 221.111 103.037 220.977C102.125 220.826 101.741 221.81 101.011 222.116C100.152 222.477 99.083 222.131 98.2318 222.515C97.8595 222.909 97.446 223.252 96.9907 223.545C96.5278 223.599 96.0671 223.585 95.6085 223.503C93.8018 223.886 92.1389 224.565 90.3278 224.918C88.5628 225.263 87.3541 225.388 88.096 227.476C86.208 227.845 85.7467 225.841 83.6165 226.574C81.0053 227.472 78.5648 228.119 75.8388 228.667C74.4489 228.946 72.9963 229.57 71.596 229.716C70.5971 229.821 69.6646 229.463 68.681 229.574C67.4954 229.707 66.5426 230.257 65.3158 230.277C64.1521 230.297 62.9303 230.088 61.7875 229.883C61.9489 230.343 62.151 230.785 62.3937 231.208C61.6035 231.042 61.2388 230.092 60.5689 229.951C59.8659 229.804 59.2361 230.529 58.6507 230.369C58.4013 230.3 58.5672 229.531 58.1213 229.385C57.7149 229.251 57.5436 229.409 57.1405 229.345C57.0059 229.325 55.32 229.233 55.0515 229.375C54.5819 229.624 55.057 230.09 54.9636 230.16C53.3782 231.333 53.359 230.7 52.6522 229.474C51.6143 227.675 50.3628 228.811 48.4764 228.495C46.3742 228.145 44.7179 229.072 42.6487 228.94C40.4169 228.798 37.7942 227.128 35.821 226.153C31.5601 224.047 27.4052 222.054 23.8268 218.864C16.8317 212.629 11.1407 204.962 7.78537 196.183C4.18014 186.753 3.49699 176.917 3.78639 166.912C3.96048 160.895 4.44209 154.881 5.39049 148.934C6.04344 144.844 6.18018 137.575 10.792 135.712C11.585 145.29 9.08303 155.05 10.6608 164.565C11.1358 167.431 12.2945 171.25 14.4873 173.373C17.7339 176.516 18.4934 171.973 18.7872 169.464C19.3336 164.804 20.349 160.17 21.0679 155.532C21.7862 150.896 22.2936 146.208 23.2925 141.621C23.6566 139.949 26.5935 127.7 28.749 128.28C28.3129 137.191 27.1548 145.948 27.1092 154.891C27.091 158.478 26.7698 162.267 27.2876 165.83C27.554 167.664 29.224 173.045 32.0961 172.596C34.754 172.181 31.8319 168.391 31.5837 166.929C30.9264 163.06 31.7644 158.247 32.3773 154.406C33.5371 147.139 36.1247 139.695 40.3543 133.622C44.1424 128.184 49.9751 123.007 57.0015 123.965C60.0038 124.376 62.346 125.121 63.8545 127.863C65.0379 130.014 69.7003 132.459 66.9984 135.152C64.5387 137.604 60.5606 135.641 57.8264 135.057C54.4787 134.341 50.891 135.202 48.0914 137.164C43.2879 140.529 40.5504 146.545 39.6569 152.187C38.4526 159.795 41.6718 179.708 53.5287 175.245C61.4052 172.28 67.3378 161.615 66.6766 153.45C66.4114 150.181 65.1335 143.976 69.6558 143.093C75.4494 141.963 76.2677 148.349 75.6812 152.499C74.8283 158.536 71.6377 164.15 67.9875 168.923C64.8062 173.083 61.1059 175.684 57.2778 179.12C56.1443 180.137 53.2535 182.424 53.739 184.316C54.2711 186.389 58.8143 186.979 60.6337 187.32C69.6333 189.004 79.7823 187.454 88.7665 186.278C107.232 183.86 125.455 177.904 140.596 166.955C141.208 173.73 141.979 180.482 142.263 187.282C142.401 190.582 142.436 193.931 142.813 197.213C143.045 199.232 143.885 202.053 141.591 203.212ZM90.3893 226.819C89.6644 227.198 90.4481 224.905 90.2465 225.663C91.3295 226.052 91.3772 226.437 90.3893 226.819ZM166.989 144.829C168.14 143.561 171.284 140.544 172.282 143.407C172.653 142.186 172.702 140.379 174.135 142.027C174.705 140.002 181 140.192 182.56 140.102C187.552 139.817 192.565 139.664 197.54 139.168C207.762 138.149 218.163 138.675 228.423 138.641C230.645 138.634 232.861 138.514 235.066 138.836C237.195 139.147 239.432 140.02 241.601 139.701C243.529 139.417 244.794 138.885 246.779 139.113C249.155 139.385 251.461 139.579 253.857 139.57C264.458 139.531 275.053 139.961 285.655 139.977C287.722 139.981 290.197 139.577 292.136 140.455C292.854 140.78 293.639 141.863 294.188 141.981C294.816 142.117 294.443 141.136 295.284 141.579C296.412 142.172 295.539 143.995 294.794 144.285C295.24 144.111 293.989 143.941 294.115 143.934C293.521 143.966 293.015 144.422 292.377 144.393C291.406 144.351 290.593 143.758 289.811 143.237C289.798 143.45 290.228 144.869 289.737 144.941C289.314 145.003 288.918 143.603 288.876 143.278C286.504 145.37 283.991 144.204 281.048 144.469C278.961 144.657 274.607 146.05 273.151 143.87C273.091 144.334 272.904 144.739 272.594 145.087C272.177 145.721 271.818 145.667 271.513 144.924C271.411 144.929 270.396 145.149 270.377 145.148C269.663 145.091 268.737 144.835 268.011 144.773C266.888 144.677 267.095 145.495 266.2 145.508C265.711 145.515 264.464 144.809 263.612 144.765C262.136 144.688 260.628 145.314 259.172 145.125C258.169 144.994 257.263 144.178 256.279 144.147C255.053 144.106 254.656 145.041 253.685 143.728C253.486 143.674 253.363 144.446 253.284 144.459C253.303 144.456 252.359 144.596 252.248 144.639C252.054 144.713 251.3 145.059 251.07 145.063C250.575 145.072 250.305 144.717 249.78 144.709C248.911 144.694 246.135 145.459 246.213 143.851C243.11 145 240.463 144.552 237.278 144.824C235.817 144.949 234.899 144.754 233.509 144.485C231.769 144.149 230.613 144.572 228.876 144.657C227.208 144.739 226.682 144.033 225.274 143.396C224.718 143.144 224.351 142.813 223.67 142.952C223.281 143.032 223.558 143.686 223.443 143.731C222.844 143.962 222.426 143.717 221.606 143.773C220.091 143.877 219.488 145.143 217.93 143.954C218.448 143.891 218.965 143.828 219.483 143.765C217.994 143.134 216.029 142.812 216.389 145.11C215.119 144.932 216.219 144.067 215.594 143.758C214.97 143.449 214.271 143.966 213.484 144.222C211.408 144.895 209.676 144.561 207.511 144.44C205.051 144.303 199.295 146.31 197.533 143.704C197.481 144.253 196.891 145.783 196.106 145.711C195.85 145.688 196.564 144.064 196.644 143.891C196.24 144.752 194.396 144.915 193.487 145.362C193.589 144.899 193.691 144.437 193.793 143.975C192.949 144.873 192.539 144.325 191.546 144.625C191.112 144.757 190.484 145.652 190.113 145.706C189.681 145.204 189.137 144.989 188.482 145.059C188.047 144.95 187.611 144.928 187.176 144.995C185.434 145.121 183.845 146.09 182.112 145.43C180.612 144.859 180.031 143.389 179.137 145.727C178.901 145.312 178.666 144.896 178.43 144.48C178.14 144.932 177.85 145.383 177.559 145.833C176.424 145.09 176.355 144.66 175.048 144.933C174.742 145.055 174.427 145.038 174.105 144.881C174.028 145.11 173.952 145.339 173.875 145.568C173.844 146.144 173.673 146.334 173.362 146.138C173.101 146.044 172.865 145.902 172.654 145.71C171.79 145.776 170.686 146.004 169.759 145.878C169.401 145.83 167.156 144.645 166.989 144.829ZM193.437 129.352C193.538 129.508 193.64 129.664 193.742 129.82C192.339 130.561 192.009 130.136 191.864 128.648C192.549 128.661 192.666 129.867 193.437 129.352ZM194.306 128.478C194.982 128.776 195.756 129.362 196.393 128.577C196.821 129.823 193.639 131.522 194.306 128.478ZM198.67 129.028C200.088 129.987 196.686 129.216 196.691 129.218C197.303 128.653 197.962 128.59 198.67 129.028ZM210.87 123.682C211.357 126.137 212.699 126.067 214.864 124.926C218.023 123.262 218.556 120.536 218.776 117.282C218.987 114.162 219.369 112.954 222.587 113.605C224.833 114.06 226.732 113.678 228.996 113.615C231.413 113.549 232.264 113.918 232.458 116.404C232.653 118.893 233.096 120.784 234.903 122.678C236.74 124.604 239.189 125.755 241.575 126.832C242.803 127.386 243.956 127.982 245.314 128.102C245.84 128.149 248.578 127.802 248.636 128.669C248.678 129.32 244.886 131.158 244.483 131.376C242.724 132.333 240.97 133.191 239.049 133.771C234.629 135.105 229.942 135.183 225.363 135.103C217.981 134.973 207.779 131.85 203.364 125.301C205.866 124.762 208.368 124.222 210.87 123.682ZM210.208 102.426C209.04 101.445 208.284 99.9648 207.313 98.8041C206.824 98.2185 206.466 98.0322 206 97.7391C205.509 97.4307 205.233 97.8672 204.824 97.142C203.767 95.2677 207.029 92.6302 203.569 91.9088C202.399 91.6641 199.582 92.5917 199.24 90.9147C198.757 88.5434 203.283 88.3883 204.348 87.1848C206.466 84.792 205.028 80.7354 206.318 77.9747C207.539 75.3598 210.69 74.8952 213.177 74.1095C216.643 73.0154 220.151 72.3809 223.67 71.505C226.13 70.8931 230.218 68.4337 232.5 70.6066C228.979 71.3885 231.026 72.6157 233.373 73.3084C236.031 74.0936 238.849 74.3998 241.603 74.6186C244.439 74.8435 247.329 74.8864 250.131 74.3212C252.722 73.7983 255.616 71.5463 258.332 72.123C256.825 74.744 252.335 76.1757 249.606 76.8625C248.215 77.2122 247.325 77.1027 247.512 78.8363C247.693 80.5166 249.153 82.2012 249.483 83.9513C249.919 86.2677 249.538 88.396 248.714 90.5744C247.903 92.7176 247.713 92.9975 248.422 95.0455C249.527 98.2345 247.153 101.759 244.959 104.075C236.086 113.438 219.106 109.891 210.208 102.426ZM232.754 46.4641C232.79 46.5597 232.76 46.5234 232.754 46.4641V46.4641ZM235.518 70.0942C235.15 70.3691 233.031 70.9453 233.12 70.1173C233.238 69.0077 235.148 69.4086 235.518 70.0942ZM240.347 47.6808C239.85 47.3102 238.457 47.4625 239.475 46.0577C239.807 46.6757 240.077 47.1783 240.347 47.6808ZM206.928 38.8007C207.562 37.154 208.264 35.6222 208.55 33.8693C208.726 32.7895 208.376 31.5563 209.885 31.3869C207.961 30.5479 207.942 27.2363 207.828 25.5198C207.672 23.1556 206.925 19.9903 207.964 17.7899C209.031 15.5296 210.469 15.567 210.904 18.2589C211.074 19.3129 210.423 19.6538 210.301 20.3878C210.059 21.8398 210.54 21.5215 211.477 20.4153C211.864 21.5396 212.012 23.2292 213.586 23.1578C213.481 22.8537 212.878 22.1829 213.08 21.8052C213.389 21.2252 214.901 22.1115 215.092 22.2456C216.473 23.2111 216.772 24.0925 215.788 25.3103C217.151 25.4571 216.007 26.6502 216.886 26.9614C218.229 27.4359 217.328 25.1877 217.183 24.7924C218 25.1113 218.274 25.4753 218.791 26.1207C219.095 26.5661 219.372 27.0285 219.621 27.5068C219.899 28.3799 220.471 28.5988 221.339 28.1633C223.078 28.7087 225.477 28.6235 227.036 29.5769C227.748 30.0124 228.005 30.9652 228.599 31.327C229.268 31.7344 230.165 31.5497 230.883 31.8053C230.62 32.4024 230.833 32.7257 231.521 32.7763C232.055 32.8252 232.573 32.9456 233.073 33.137C233.447 32.8549 233.854 32.6323 234.294 32.4701C234.589 32.9907 235.006 33.1194 235.547 32.8571C237.15 33.1573 237.92 33.7638 238.939 34.6704C239.854 35.4842 239.109 35.5501 240.111 35.4781C240.514 35.449 241.22 34.7661 242.141 34.8992C242.671 35.0025 243.182 35.1658 243.674 35.389C244.206 35.8443 244.771 35.9015 245.369 35.5611C246.339 36.0356 246.435 36.8763 247.618 36.9912C248.928 37.1188 248.506 35.4869 249.405 37.7885C250.616 35.3484 251.059 39.2356 252.309 39.5495C253.604 39.875 253.744 38.8254 254.852 39.9723C255.184 40.316 255.165 40.8839 255.538 41.2485C256.15 41.845 256.976 41.7257 257.507 42.5394C257.211 42.0853 257.577 44.1488 257.571 44.0806C257.653 44.9911 256.844 46.011 258.502 45.9335C258.484 46.0291 257.687 47.1898 257.532 47.0584C257.494 46.9259 257.462 46.7917 257.436 46.6559C257.258 46.7324 257.179 47.8381 257.212 48.0332C257.353 48.0552 257.41 47.9508 257.385 47.7198C257.112 48.5726 257.523 49.1142 257 49.9235C256.665 50.4409 255.748 50.8296 255.261 51.1491C254.085 51.9199 252.935 52.693 251.788 53.5133C249.114 55.4267 246.12 57.7337 242.753 58.1329C244.444 56.4724 254.174 50.1885 249.294 48.3846C248.389 48.0503 246.741 47.7336 245.794 47.6632C244.617 47.5758 243.399 48.2499 242.101 47.8293C240.534 47.3223 241.124 45.8494 240.167 45.321C238.134 44.1999 238.614 46.8363 237.975 47.5269C237.302 46.8214 237.446 46.4783 236.385 46.4146C235.308 46.3497 235.051 47.3454 233.794 46.7252C232.062 45.8702 232.979 44.1675 230.522 44.1273C230.563 43.7534 230.92 42.7088 230.451 42.4174C229.819 43.2372 230.308 44.1537 229.721 44.9427C229.428 45.3386 228.79 45.6542 228.325 45.7823C227.236 46.0814 227.081 46.6543 227.258 45.0142C226.451 46.4685 223.975 45.8702 222.503 45.724C220.109 45.4859 217.565 45.0329 215.27 44.2653C213.148 43.555 212.014 42.3349 210.264 41.2248C209.602 40.8048 209.286 40.9653 208.337 40.7047C207.4 40.4474 206.488 39.9487 206.928 38.8007ZM211.98 13.051C212.341 12.8333 212.601 16.0821 212.163 16.6891C211.361 15.4207 209.939 13.5601 211.98 13.051ZM213.134 11.7551C214.296 10.7033 213.489 13.4199 213.276 13.8757C212.845 13.5997 212.415 13.3237 211.984 13.0477C212.533 12.7106 212.671 12.1746 213.134 11.7551ZM256.98 7.37685C267.717 9.63001 278.356 13.8416 286.967 20.7726C294.811 27.0857 300.348 36.0428 303.451 45.5706C306.673 55.4602 305.591 66.4324 297.926 74.0012C293.888 77.9879 288.555 80.3934 283.474 82.7406C281.039 83.865 278.531 84.8018 276.087 85.9004C274.331 86.6894 272.188 87.9518 270.184 87.7329C271.206 86.6575 272.689 86.6355 273.926 85.9779C275.421 85.1829 276.641 83.6571 277.93 82.5674C279.209 81.4853 282.046 78.0781 284.011 78.9028C283.738 77.0879 285.806 76.245 286.738 75.0481C287.724 73.7818 287.795 72.3012 289.611 71.8866C287.66 70.3603 288.258 67.4814 288.682 65.4037C289.225 62.7464 289.476 60.3069 289.69 57.6028C290.076 52.7276 290.386 46.5174 287.693 42.2315C286.818 40.84 285.706 39.5611 284.926 38.1156C283.986 36.3738 284.193 34.8403 284.193 32.9308C282.475 34.0854 282.113 31.7311 281.387 30.5836C280.842 29.7226 280.126 29.2415 279.951 28.1584C279.823 27.3699 280.678 27.2369 280.209 26.4105C279.634 26.8449 279.405 27.5178 279.114 28.1424C278.583 27.9302 279.209 27.1912 278.905 26.951C278.896 26.9444 277.872 26.4996 277.923 26.5639C277.264 25.7287 277.052 24.3426 276.729 23.3486C275.522 23.96 275.747 23.8879 274.401 22.8664C274.164 22.6866 272.979 21.8607 272.867 21.5908C272.346 20.3284 273.259 21.0762 273.004 20.2927C272.271 18.0422 268.156 18.4678 267.83 15.0958C265.823 16.3697 265.058 14.5646 263.872 13.2808C262.656 11.9656 260.617 11.4598 260.726 9.3738C260.095 9.58987 259.463 9.8054 258.832 10.0204C259.16 8.09547 256.301 8.21807 255.265 7.2416C255.84 7.24874 256.412 7.29383 256.98 7.37685ZM258.615 126.599C259.61 125.709 259.308 126.893 259.949 126.758C260.496 126.642 260.604 126.228 261.129 126.101C263.293 125.578 266.527 126.235 268.802 126.122C271.437 125.992 275.954 126.539 277.209 129.622C277.966 131.479 276.812 130.847 275.54 130.709C274.554 130.602 273.677 130.802 272.701 130.792C272.219 130.866 271.738 130.859 271.259 130.77C271.025 130.616 270.887 130.399 270.845 130.12C269.487 129.914 268.045 130.717 266.541 130.757C264.535 130.811 262.751 130.426 261.227 129.071C260.62 129.974 260.207 130.423 259.117 130.524C259.089 130.526 258.024 130.098 257.859 130.055C257.641 129.998 257.089 130.456 256.669 130.325C257.415 129.137 257.524 127.575 258.615 126.599ZM395.669 137.328C396.023 136.096 396.319 134.848 396.642 133.607C401.595 139.246 405.93 146.795 407.881 154.026C409.147 158.726 411.119 167.241 405.079 169.664C400.158 171.639 397.415 164.561 396.17 161.076C393.421 153.381 393.421 145.157 395.669 137.328ZM174.056 48.9707C174.12 48.958 170.849 50.8599 171.927 49.3198C172.359 48.7007 174.001 48.2653 174.729 48.2653L174.056 48.9707ZM170.91 49.7767C170.532 50.0951 170.15 50.4096 169.764 50.7197C169.394 50.1346 169.023 49.5496 168.653 48.9646C169.383 48.6567 172.482 48.4258 170.91 49.7767ZM168.605 108.909C167.921 108.445 167.379 108.692 167.173 109.469C167.173 108.695 167.576 106.897 168.196 106.687C168.596 106.552 166.865 104.504 167.352 103.967C168.589 104.676 167.848 105.355 168.211 106.27C168.374 106.683 168.866 107.073 168.973 107.391C169.156 107.929 169.894 109.78 168.605 108.909ZM165.253 104.3C164.553 104.479 165.779 105.636 165.778 106.147C165.777 106.534 165.313 106.831 165.122 107.36C164.706 108.506 165.421 109.28 164.245 110.155C164.245 107.644 162.559 100.989 165.798 99.7646C164.218 98.5204 165.516 97.0843 166.754 98.5732C167.945 100.005 167.186 103.805 165.253 104.3ZM163.566 94.3891C162.929 92.1315 161.013 91.3419 158.823 91.4756C158.906 90.3198 159.782 88.6533 160.415 90.7366C160.675 90.1208 160.855 89.3175 161.448 88.9096C162.447 92.0413 167.427 93.7716 164.326 97.1651C164.073 96.2397 163.827 95.3128 163.566 94.3891ZM157.779 91.6438C146.246 92.4801 130.056 94.8729 120.828 86.0334C114.81 80.2697 115.132 71.2939 119.994 64.8902C122.769 61.2361 126.557 58.6629 130.362 56.2118C131.83 55.2656 133.074 54.641 134.686 54.0972C134.946 54.0692 135.192 54.1274 135.421 54.272C135.512 53.8828 135.731 53.5947 136.08 53.4066C136.703 53.0734 137.589 52.9547 137.948 52.263C137.565 53.5617 137.369 54.8988 137.228 56.2426C136.917 55.8808 136.607 55.519 136.297 55.1572C136.038 57.6045 133.488 56.1233 131.966 56.429C132.968 57.8167 133.686 58.3209 133.772 60.1551C133.025 58.7762 131.463 57.8695 130.011 57.4252C130.8 59.7576 131.357 61.142 130.563 63.6998C129.604 63.1522 129.539 61.837 128.376 61.522C128.069 63.0472 128.015 64.7395 127.622 66.2196C124.643 64.861 124.934 68.5201 126.13 70.3306C126.766 71.2939 127.078 72.4089 127.645 73.3337C129.037 75.6017 127.98 72.2099 129.527 72.371C129.18 74.7633 129.059 75.0013 130.81 76.753C132.518 78.4613 133.404 80.8316 135.232 82.4365C135.761 81.7603 134.929 81.0526 134.856 80.4055C136.557 80.6908 137.353 82.3958 138.988 80.8855C139.7 82.2749 140.472 83.805 142.179 84.0904C141.051 81.945 144.347 83.3998 145.192 83.7044C145.833 83.9353 146.982 84.119 147.229 84.208C148.622 84.7111 147.667 83.8083 148.512 85.4572C149.753 85.0828 150.222 84.053 151.706 84.9228C152.913 85.6304 152.916 86.8422 153.192 88.0837C153.479 87.2716 153.77 86.4601 154.088 85.659C154.412 85.7954 155.771 87.2909 155.623 87.298C158.803 87.1419 158.691 89.1168 157.779 91.6438ZM141.587 51.1579C142.225 50.7098 143.005 51.3063 143.722 51.1458C144.715 50.9242 145.279 50.0736 146.389 49.9823C146.08 50.9687 145.501 50.8764 145.011 51.651C144.844 51.915 144.931 52.5484 144.782 52.7001C143.539 53.9735 143.11 52.9343 141.841 51.9705C141.951 53.1328 142.174 53.5001 141.079 53.8118C140.088 54.0944 138.452 53.0536 137.952 52.2553C138.374 51.4119 140.822 51.6945 141.587 51.1579ZM149.5 49.3413C150.577 49.4441 149.279 52.6209 147.736 49.5392C148.317 49.4127 148.905 49.3468 149.5 49.3413ZM155.037 48.7271C156.735 48.3807 162.399 46.7665 163.03 49.41C163.143 49.344 163.564 47.8518 163.76 48.0338C164.544 48.7634 164.632 49.7305 164.572 50.7438C163.624 48.7689 163.961 50.5036 163.319 50.3683C163.151 50.3326 162.895 50.646 162.47 50.5168C161.913 50.3469 161.514 49.162 161.162 48.7606C160.577 49.5964 159.851 50.6724 158.679 50.5998C157.849 50.5487 156.512 48.4121 157.587 50.751C156.956 50.5426 156.225 50.0709 155.522 50.1654C154.735 50.2716 154.326 51.0484 153.589 51.1738C151.953 51.4509 151.707 49.8773 150.645 49.0229C152.109 48.9377 153.591 49.0218 155.037 48.7271ZM165.311 48.7018C165.431 48.1597 166.917 47.9409 167.295 48.113C168.219 48.5325 167.877 49.0861 167.708 50.0076C167.022 49.6832 166.337 49.3594 165.652 49.035C166.675 50.6823 164.821 50.9214 165.311 48.7018ZM452.967 145.191C452.846 141.243 452.731 137.227 451.73 133.384C451.03 130.694 449.309 125.871 446.055 125.404C441.147 124.7 438.429 134.4 437.054 137.73C436.779 133.809 437.019 129.637 435.539 125.916C434.353 122.935 431.358 120.111 428.779 123.459C426.483 126.439 426.042 130.838 425.438 134.424C424.655 139.07 424.185 143.751 423.613 148.425C421.372 144.093 420.98 139.134 419.208 134.632C417.536 130.384 414.905 126.326 412.371 122.547C410.302 119.46 407.784 116.558 404.542 114.671C401.72 113.029 396.785 111.253 394.095 113.98C391.851 116.256 392.202 119.301 392.319 122.173C392.371 123.452 392.572 124.329 391.447 124.973C390.895 125.29 390.031 125.126 389.423 125.295C388.445 125.569 387.694 126.032 386.866 126.647C381.062 130.961 378.387 138.735 377.559 145.666C376.511 154.447 379.934 161.976 382.88 170.011C383.35 171.291 384.841 174.008 384.635 175.437C384.409 177.004 382.443 177.044 381.116 177.077C377.11 177.176 372.922 176.877 368.935 176.504C359.444 175.616 349.96 171.047 341.461 166.967C339.911 166.222 337.717 165.796 336.451 164.624C335.261 163.522 334.948 161.756 333.921 160.492C331.4 157.391 329.795 154.744 326.083 152.87C322.303 150.962 318.447 149.199 314.759 147.109C310.199 144.524 305.986 141.249 301.616 138.354C293.495 132.976 285.428 127.08 276.818 122.506C272.817 120.381 268.346 120.036 264.192 118.296C260.147 116.602 255.181 116.6 250.96 117.67C248.904 118.191 247.505 119.427 245.613 120.234C243.397 121.18 241.589 120.136 239.639 119.007C236.659 117.283 233.705 114.473 237.949 112.613C239.388 111.982 241.192 111.743 242.449 110.751C243.79 109.693 244.865 107.743 245.956 106.418C248.378 103.474 249.825 100.084 253.372 98.2532C257.293 96.2282 261.942 95.6773 266.123 94.3539C270.654 92.9205 275.09 91.216 279.536 89.5424C287.547 86.5272 295.875 83.2717 301.631 76.6343C306.596 70.9079 308.76 63.5167 308.559 56.0095C308.149 40.6624 299.929 25.0871 288.133 15.4916C273.669 3.7255 255.269 -0.198008 236.999 0.00762402C228.425 0.104392 218.192 1.22657 211.038 6.43611C204.858 10.9358 203.83 18.8059 204.749 25.9102C205.122 28.7934 206.397 32.5982 204.364 35.1389C203.226 36.5602 201.183 36.912 199.65 37.7984C197.724 38.9117 196.025 39.9789 193.844 40.5678C184.576 43.0706 174.814 42.1991 165.338 42.0606C149.553 41.8296 133.374 46.1034 121.598 57.2262C112.089 66.2075 109.237 83.1436 120.835 91.8995C130.205 98.9729 144.903 98.1949 155.951 96.9611C159.377 96.5779 161.733 96.0215 161.741 100.213C161.75 104.792 160.991 109.578 162.159 114.073C164 121.153 170.802 121.321 176.816 119.797C179.99 118.992 183.058 117.783 186.071 116.516C190.492 114.658 194.543 111.926 198.909 110.072C201.868 108.815 204.084 112.879 206.709 110.062C207.194 109.541 207.283 108.765 208.015 108.498C209.161 108.081 211.085 109.544 212.09 110.007C213.596 110.701 215.114 111.21 215.715 112.879C216.278 114.441 216.031 116.924 215.492 118.465C214.321 121.813 211.167 121.151 208.287 120.927C203.265 120.536 198.277 119.708 193.256 119.36C188.752 119.047 184.534 120.393 180.648 122.615C172.489 127.28 165.812 134.7 158.737 140.803C155.096 143.943 151.575 147.336 147.615 150.07C145.894 151.26 144.029 152.353 142.532 153.831C141.048 155.296 140.884 156.629 140.376 158.58C139.472 162.053 134.98 163.751 132.173 165.583C128.202 168.175 123.993 170.003 119.542 171.593C110.116 174.96 100.615 177.311 90.7605 179.049C85.9356 179.9 81.1508 180.459 76.2787 180.919C72.0792 181.315 67.6135 182.608 63.419 181.575C64.6272 179.615 66.7678 178.439 68.435 176.924C70.5844 174.972 72.4126 172.658 74.0392 170.261C77.2056 165.593 79.4264 160.584 79.9366 154.922C80.3963 149.826 79.8691 143.73 76.7943 139.426C75.7322 137.939 73.6312 137.534 72.6806 136.195C71.7355 134.863 72.0957 132.571 71.5784 131.018C70.261 127.069 66.3515 122.176 62.911 119.883C59.1784 117.393 53.7181 116.479 49.4061 117.776C41.4181 120.179 36.5113 128.715 32.8561 135.615C30.8594 131.413 34.2032 125.18 30.3025 121.739C27.0125 118.837 24.4013 124.459 23.3008 126.865C18.1354 138.156 16.9624 150.132 14.7981 162.214C13.9162 161.345 14.3681 159.114 14.4511 158.077C14.6054 156.146 14.5911 154.253 14.5949 152.314C14.6054 147.417 15.5159 142.497 15.0985 137.604C14.8574 134.776 13.9557 128.812 9.84636 129.752C6.3614 130.549 4.17849 135.45 3.08347 138.446C1.50409 142.767 1.13945 147.045 1.23775 151.61C1.34648 156.654 0.385453 161.616 0.15261 166.653C-0.299897 176.437 0.147119 186.136 2.95442 195.579C7.55143 211.041 18.1211 223.889 32.2279 231.647C40.0001 235.922 48.6225 238.626 57.4875 239.208C62.2916 239.523 66.9292 238.951 71.6921 238.455C76.3923 237.964 81.1173 237.738 85.8093 237.163C96.2587 235.881 106.441 232.573 115.938 228.122C120.938 225.778 125.639 222.902 130.557 220.403C132.53 219.401 133.863 218.147 135.547 216.754C137.217 215.372 137.679 215.264 139.577 215.264C139.021 213.774 140.646 213.315 141.369 212.372C141.329 212.829 141.288 213.286 141.247 213.743C141.799 212.547 142.312 212.559 142.787 213.778C143.257 212.413 143.604 211.009 144.171 209.678C146.339 210.775 146.156 213.383 149.055 211.479C151.442 209.912 153.637 208.064 156.07 206.528C161.614 203.029 166.393 198.476 171.952 195.018C171.952 198.386 172.19 201.784 171.739 205.136C171.311 208.323 170.121 211.302 169.175 214.352C167.43 219.982 167.309 225.997 165.375 231.57C164.575 233.877 162.491 235.807 161.894 238.054C161.285 240.345 162.692 242.182 160.333 243.686C158.67 244.747 156.591 245.195 154.75 245.837C151.941 246.816 149.275 248.198 146.54 249.369C133.715 254.865 121.205 260.461 109.323 267.85C98.0468 274.862 86.5979 282.104 76.2391 290.432C67.2488 297.659 58.1608 307.004 55.9724 318.793C53.8488 330.229 59.5068 342.504 70.8678 346.27C76.7751 348.229 83.4534 347.986 89.6051 348.071C96.2247 348.162 103.239 346.567 109.747 345.412C116.62 344.193 123.376 342.286 130.269 341.197C136.882 340.152 142.948 337.818 149.454 336.379C156.382 334.846 163.489 334.015 170.456 332.637C173.592 332.016 176.665 331.101 179.81 330.526C183.254 329.897 186.735 329.661 190.145 328.828C196.758 327.212 203.09 324.606 209.733 323.102C212.719 322.426 215.66 321.521 218.648 320.889C221.398 320.307 223.541 318.761 226.298 320.03C228.525 321.056 230.301 322.815 232.409 324.04C235.143 325.63 238.025 327.053 240.875 328.421C246.601 331.169 252.541 333.068 258.528 335.131C264.818 337.298 270.994 339.77 277.51 341.201C284.19 342.668 291.004 343.076 297.73 344.237C311.505 346.613 325.163 347.68 339.146 347.766C346.214 347.811 353.28 346.973 360.332 347.072C366.574 347.16 372.001 348.567 377.709 345.248C386.829 339.945 397.408 331.958 397.184 320.357C396.98 309.849 390.677 299.81 384.765 291.523C377.586 281.458 367.349 274.371 357.317 267.429C346.624 260.03 334.614 254.918 323.376 248.46C317.628 245.157 312.328 241.604 306.087 239.257C303.108 238.137 300.202 236.838 297.258 235.632C294.889 234.661 291.468 234.125 289.441 232.515C288.175 231.51 288.054 229.989 287.72 228.495C286.98 225.189 285.817 222.054 284.69 218.866C282.515 212.711 281.069 206.441 280.134 199.985C279.242 193.83 277.264 187.43 278.288 181.175C285.029 187.695 291.955 193.962 298.851 200.31C301.435 202.688 303.972 205.117 306.57 207.481C308.52 209.256 310.96 211.892 313.678 212.419C317.15 213.092 315.882 209.251 318.266 208.656C319.723 208.292 324.117 211.994 325.269 212.726C332.571 217.361 340.656 220.299 348.687 223.454C357.109 226.762 365.769 229.701 374.831 230.534C383.201 231.305 391.761 230.316 399.838 228.036C415.924 223.494 427.761 212.719 436.448 198.751C446.347 182.835 453.55 164.19 452.967 145.191Z" fill="#16393A"/>
<path fill-rule="evenodd" clip-rule="evenodd" d="M207.115 110.493C207.113 110.498 207.088 110.551 207.088 110.551C207.119 110.53 207.128 110.511 207.115 110.493Z" fill="#16393A"/>
<path fill-rule="evenodd" clip-rule="evenodd" d="M207.891 110.699C207.831 110.192 207.701 109.696 207.501 109.21C206.969 110.054 206.492 110.415 207.192 111.309C207.425 111.106 207.658 110.902 207.891 110.699Z" fill="#16393A"/>
<path fill-rule="evenodd" clip-rule="evenodd" d="M244.985 231.361C245.581 230.727 244.539 230.488 244.143 230.479C244.182 231.16 243.846 232.789 244.776 233.104C244.553 232.489 244.623 231.908 244.985 231.361Z" fill="#16393A"/>
<path fill-rule="evenodd" clip-rule="evenodd" d="M229.272 98.7326C228.248 100.709 230.509 101.323 231.819 100.368C232.804 99.6497 233.386 97.8193 233.548 96.6449C234.072 92.8447 231.412 89.2277 230.087 85.8558C229.744 84.9842 229.275 81.9953 228.171 81.913C226.904 81.8187 226.81 84.5717 226.794 85.2821C226.745 87.4241 227.312 89.6056 227.977 91.6275C228.693 93.8073 230.468 96.4238 229.272 98.7326Z" fill="#16393A"/>
<path fill-rule="evenodd" clip-rule="evenodd" d="M234.141 90.8038C238.075 94.3076 241.223 88.472 240.948 85.02C240.88 84.1647 240.302 81.0114 238.681 82.159C237.865 82.7355 238.56 84.609 238.172 85.4314C236.29 89.4195 234.477 83.2338 233.21 82.7479C231.668 82.1563 231.513 84.1824 231.515 85.2653C231.519 87.4149 232.542 89.3801 234.141 90.8038Z" fill="#16393A"/>
<path fill-rule="evenodd" clip-rule="evenodd" d="M219.857 91.348C220.784 89.8885 221.924 87.931 222.049 86.1825C222.245 83.4647 220.661 83.6915 219.358 85.5878C218.437 86.9273 217.746 89.1993 215.714 88.6347C213.204 87.9382 213.971 84.5641 212.566 82.9606C209.019 87.7254 215.732 97.8424 219.857 91.348Z" fill="#16393A"/>
<path fill-rule="evenodd" clip-rule="evenodd" d="M225.174 105.93C226.641 106.247 230.466 106.13 229.141 103.883C227.469 101.053 221.911 105.224 225.174 105.93Z" fill="#16393A"/>
<path fill-rule="evenodd" clip-rule="evenodd" d="M276.575 21.5382C276.843 20.7383 276.474 20.5931 275.834 19.9632C275.228 20.523 276.004 21.1118 276.575 21.5382Z" fill="#16393A"/>
<path fill-rule="evenodd" clip-rule="evenodd" d="M303.942 166.405C304.91 166.559 305.222 166.047 304.876 164.869C303.349 164.77 303.038 165.282 303.942 166.405Z" fill="#16393A"/>
<path fill-rule="evenodd" clip-rule="evenodd" d="M251.085 42.826C252.152 43.3142 251.743 44.3157 251.725 45.1622C252.275 44.5645 253.386 43.4719 252.934 42.6134C252.237 41.2897 250.416 42.5207 251.085 42.826Z" fill="#16393A"/>
<path fill-rule="evenodd" clip-rule="evenodd" d="M214.716 26.1657C214.553 25.8481 214.391 25.5306 214.228 25.213C213.565 25.7451 212.541 27.1522 213.595 27.8379C214.027 27.3136 214.401 26.7562 214.716 26.1657Z" fill="#16393A"/>
<path fill-rule="evenodd" clip-rule="evenodd" d="M227.527 35.5046C228.855 36.5464 228.218 33.3488 228.178 33.0877C227.981 33.4628 226.856 34.9783 227.527 35.5046Z" fill="#16393A"/>
<path fill-rule="evenodd" clip-rule="evenodd" d="M226.791 33.8808C226.689 33.6166 226.587 33.3524 226.486 33.0877C225.947 33.5862 225.287 34.6043 226.177 35.1876C226.421 34.7791 226.625 34.3436 226.791 33.8808Z" fill="#16393A"/>
<path fill-rule="evenodd" clip-rule="evenodd" d="M235.227 44.8612C235.336 44.9614 235.445 45.0615 235.553 45.1622C235.991 44.2783 235.493 43.6143 234.665 43.5872C234.724 44.0835 234.911 44.5082 235.227 44.8612Z" fill="#16393A"/>
<path fill-rule="evenodd" clip-rule="evenodd" d="M199.631 144.296C200.158 143.937 200.636 143.528 201.067 143.069C199.507 142.115 200.442 144.181 198.564 142.913C198.16 143.472 198.82 144.723 199.631 144.296Z" fill="#16393A"/>
<path fill-rule="evenodd" clip-rule="evenodd" d="M265.168 231.004C265.761 230.094 265.868 230.12 265.058 229.43C264.382 230.554 264.452 230.265 265.168 231.004Z" fill="#16393A"/>
<path fill-rule="evenodd" clip-rule="evenodd" d="M141.219 86.1506C141.542 86.4874 141.865 86.8242 142.188 87.1604C142.338 86.7199 143.16 85.475 142.602 85.0605C142.141 85.4239 141.68 85.7873 141.219 86.1506Z" fill="#16393A"/>
<path fill-rule="evenodd" clip-rule="evenodd" d="M152.702 89.4819C152.187 89.3958 150.954 89.0198 150.669 89.499C151.423 90.117 153.125 89.5527 152.702 89.4819Z" fill="#16393A"/>
</svg>
