<svg width="754" height="573" viewBox="0 0 754 573" fill="none" xmlns="http://www.w3.org/2000/svg">
<path d="M724.274 566.924H70.2733C-128.727 114.424 119.376 -115.076 507.575 57.4235C804.558 189.391 767.774 474.757 724.274 566.924Z" fill="#F9FDFD"/>
<path fill-rule="evenodd" clip-rule="evenodd" d="M549.579 491.666C546.386 495.364 541.671 498.109 538.053 501.489C534.255 505.041 530.131 508.144 526.347 511.652C509.655 491.223 486.788 478.696 466.979 461.743C457.588 453.705 450.669 442.804 445.606 431.615C443.01 425.88 441.092 419.976 439.592 413.866C438.916 411.114 438.255 408.371 437.813 405.581C437.278 402.203 437.139 401.914 434.863 399.278C433.883 398.143 431.985 394.827 430.066 395.193C428.451 395.501 425.497 400.424 424.476 401.64C419.567 407.489 414.809 413.515 409.641 419.138C401.734 427.741 394.536 436.207 387.195 445.326C372.178 463.981 355.979 481.543 339.633 499.097C338.42 500.399 335.593 504.216 333.852 504.729C331.734 505.353 328.292 502.751 326.159 501.298C321.011 497.788 316.953 493.444 312.552 489.094C303.964 480.605 298.149 468.69 294.237 457.353C291.895 450.567 290.372 443.532 287.955 436.769C286.948 433.951 284.665 430.486 285.824 428.032C286.169 427.3 288.366 425.355 289.141 425.206C290.057 425.03 291.585 426.288 291.903 426.201C294.942 425.368 293.256 422.182 295.064 420.467C296.089 419.495 301.302 419.637 302.859 419.103C308.55 417.147 313.656 413.419 319.036 411.192C341.559 401.874 364.357 392.81 383.802 377.593C388.845 373.648 392.195 370.682 398.212 368.132C404.293 365.555 410.406 363.256 416.61 361.007C422.084 359.023 427.588 357.162 433.243 355.74C439.358 354.202 448.032 352.252 454.141 354.233C466.139 358.123 470.014 368.022 474.792 378.465C481.256 392.594 489.072 405.964 497.546 418.969C513.847 443.99 533.672 466.443 549.579 491.666Z" fill="#0FA184"/>
<path fill-rule="evenodd" clip-rule="evenodd" d="M188.245 270.462C187.585 270.127 182.43 272.228 181.565 272.549C178.109 273.833 174.854 275.966 171.598 277.702C174.093 280.743 176.589 283.785 179.084 286.826C181.53 280.819 184.673 275.862 188.245 270.462ZM189.947 307.841C189.098 307.936 196.265 325.185 197.102 327.121C200.148 334.165 203.346 341.14 206.433 348.167C209.423 354.975 213.216 361.239 217.037 367.6C220.306 373.04 223.668 381.482 228.599 385.511C225.485 371.681 225.895 355.779 216.966 344.166C207.71 332.128 198.559 320.372 189.947 307.841ZM549.579 492.28C535.747 470.347 518.433 450.944 504.01 429.402C495.933 417.34 488.073 405.124 481.275 392.285C476.33 382.946 473.256 369.62 465.619 362.48C462.254 359.334 458.658 356.255 454.141 354.846C447.961 352.918 439.452 354.829 433.243 356.354C421.673 359.194 410.371 363.606 399.412 368.239C388.296 372.937 378.812 381.378 368.769 388.159C357.995 395.434 346.333 400.734 334.262 405.373C323.752 409.413 314.402 415.213 303.948 419.279C301.865 420.089 297.614 419.97 295.866 421.027C293.983 422.165 294.724 425.524 292.438 426.763C291.407 427.323 291.064 425.295 290.272 425.329C289.303 425.369 288.42 426.507 287.487 427.228C283.688 430.163 286.016 432.121 287.52 436.16C292.424 449.32 295.059 462.71 301.944 475.134C307.605 485.346 315.706 494.498 325.245 501.258C326.696 502.288 331.426 506.274 333.129 506.009C334.662 505.771 337.782 501.689 338.841 500.581C343.644 495.551 348.035 490.14 352.835 485.102C360.253 477.316 367.394 469.322 374.593 461.43C382.95 452.268 390.346 441.888 397.873 432.099C401.335 427.595 405.792 423.927 409.641 419.751C414.816 414.137 419.567 408.101 424.477 402.253C425.961 400.484 428.449 395.957 430.757 396.01C432.375 396.047 435.226 399.861 436.073 401.055C439.217 405.497 439.203 413.519 440.766 419.063C444.582 432.583 451.462 445.789 460.899 456.222C470.282 466.597 482.302 473.975 493.4 482.314C505.423 491.349 516.813 500.595 526.347 512.266C530.131 508.757 534.254 505.653 538.053 502.103C541.672 498.721 546.387 495.978 549.579 492.28ZM371.536 554.331C374.225 554.358 378.779 556.015 381.184 555.017C374.049 547.111 367.496 540.328 358.468 534.534C349.1 528.521 339.762 522.563 330.663 516.15C312.326 503.225 298.839 487.898 291.179 466.375C289.207 460.833 287.885 455.02 286.44 449.322C285.662 446.254 284.114 431.898 281.485 430.659C279.928 429.924 268.208 438.173 266.351 439.201C262.009 441.605 257.651 443.47 253.162 445.351C243.514 449.396 233.567 452.482 223.336 455.058C211.069 458.146 202.714 453.036 195.115 443.382C186.493 432.428 179.329 420.07 171.447 408.567C167.862 403.335 164.892 398.112 162.245 392.342C160.512 388.566 153.641 378.379 156.015 374.357C162.789 379.521 165.227 389.79 169.841 396.705C175.592 405.323 182.074 413.449 187.855 422.059C192.716 429.299 197.676 438.073 204.858 443.278C211.175 447.855 217.177 446.448 223.976 444.391C232.216 441.897 240.757 440.669 248.833 437.576C257.572 434.23 265.84 429.483 274.367 425.612C278.342 423.807 283.101 422.782 286.847 420.531C290.075 418.593 289.594 417.57 289.831 413.442C290.108 408.627 290.427 403.808 290.639 398.988C290.782 395.749 289.033 391.359 290.22 388.941C280.54 390.622 271.079 392.873 261.467 394.864C256.204 395.954 251.129 397.302 245.813 398.158C243.786 398.485 241.016 398.475 239.201 399.359C237.753 398.943 237.015 399.208 236.987 400.153C236.918 400.666 236.808 401.172 236.658 401.67C233.69 403.022 231.963 400.122 229.389 397.34C226.212 393.907 223.833 390.041 221.503 386.006C216.292 376.987 210.285 368.504 205.463 359.23C200.548 349.777 196.556 339.655 192.389 329.847C188.566 320.849 186.118 311.117 181.894 302.332C180.008 298.411 177.619 295.168 174.829 291.855C172.527 289.121 168.984 283.224 165.546 281.968C164.637 281.636 162.256 282.194 161.224 282.121C159.165 281.973 157.331 281.217 155.224 281.382C150.663 281.74 145.691 284.628 142.046 287.167C144.402 289.269 150.294 291.825 146.061 295.612C141.954 299.288 139.686 292.693 138.119 289.804C130.739 295.872 131.806 304.24 130.953 312.814C130.508 317.29 129.337 321.699 128.581 326.108C128.037 329.282 128.418 332.564 128.263 335.804C127.866 344.037 127.04 351.917 127.079 360.035C127.123 368.712 127.713 377.092 128.406 385.706C129.573 400.208 132.247 414.716 134.541 429.103C135.831 437.19 137.597 445.047 139.311 453.004C141.256 462.034 144.855 470.587 146.873 479.594C148.929 476.976 150.476 476.963 153.802 477.31C156.36 477.577 158.079 476.968 157.929 480.523C157.832 482.829 155.8 484.59 153.552 484.993C150.621 485.518 149.625 484.053 148.114 481.83C147.761 486.04 150.588 490.442 151.707 494.554C152.765 498.451 153.466 502.271 155.245 506C156.98 509.639 158.466 513.228 160.222 516.831C161.031 518.489 161.787 520.173 162.605 521.827C163.018 522.664 163.505 523.818 164.123 524.523C165.57 526.178 165.34 525.376 167.034 526.319C170.726 528.372 169.339 527.86 169.426 532.1C169.51 536.283 171.652 539.356 175.086 541.707C182.374 546.696 189.561 548.083 197.846 550.604C205.565 552.952 213.696 554.968 221.87 554.922C231.881 554.866 241.759 553.551 251.77 553.418C262.814 553.272 273.965 553.332 284.986 553.714C289.527 553.871 293.743 554.074 298.127 555.235C303.217 556.584 308.141 556.049 313.388 555.844C324.581 555.408 336.159 554.541 347.206 554.463C355.16 554.406 363.552 553.851 371.536 554.331ZM661.776 558.675C663.766 559.728 668.226 559.296 670.227 559.004C673.751 558.489 674.128 557.091 676.364 553.944C680.212 548.526 683.337 543.336 685.601 537.06C689.934 525.047 691.703 512.757 693.606 500.19C695.72 486.227 691.859 471.753 690.478 457.885C690.16 454.703 689.726 451.55 689.224 448.393C688.924 446.505 688.845 440.083 687.605 438.448C685.221 435.308 674.137 437.841 669.779 438.125C657.615 438.921 645.371 439.107 633.213 439.245C626.73 439.319 620.211 439.591 613.792 439.641C610.844 439.664 607.963 439.518 605.004 439.23C604.015 439.135 603.048 438.907 602.052 438.852C598.639 438.663 598.895 438.167 598.013 441.193C596.468 446.495 597.657 453.24 597.251 458.743C596.708 466.096 596.415 473.554 596.549 480.922C596.674 487.732 596.442 494.526 596.695 501.35C596.801 504.177 597.11 506.481 597.854 509.18C598.696 512.232 599.622 519.361 601.719 521.473C601.957 521.713 603.739 521.153 604.212 521.752C604.941 522.674 604.807 524.625 605.307 525.221C606.927 527.151 610.274 527.304 612.702 528.171C619.365 530.55 625.476 533.133 631.756 536.341C637.366 539.207 646.412 541.647 649.786 547.301C651.332 549.893 651.541 553.311 652.963 555.986C654.583 559.032 651.342 557.44 655.31 558.675C657.097 559.232 659.944 558.675 661.776 558.675ZM70.283 524.218C69.7783 531.254 65.8204 537.955 64.4427 544.872C63.798 548.111 62.7044 551.295 61.9467 554.515C61.22 557.604 58.5946 561.263 58.8604 564.319C68.5504 560.862 78.3656 559.993 88.4932 559.061C98.092 558.176 108.232 557.825 117.751 557.82C127.45 557.815 137.821 556.867 147.808 556.72C158.252 556.566 168.854 556.295 179.147 555.211C173.764 551.219 167.03 547.47 163.056 541.916C158.735 535.879 156.492 528.315 152.69 521.944C145.061 509.159 140.211 493.296 136.212 478.933C128.139 449.937 119.117 421.477 116.943 391.402C112.804 393.524 109.52 401.757 107.448 405.857C104.803 411.091 103.418 416.766 101.699 422.329C98.1592 433.789 95.7091 445.671 91.3744 457.022C83.0897 478.719 77.7647 502.098 70.283 524.218ZM596.288 355.227C598.079 368.195 601.837 381.33 601.982 394.455C602.013 397.342 601.525 400.549 602.126 403.396C602.768 406.435 604.855 409.122 606.06 412.011C607.973 416.597 612.817 425.995 608.146 429.881C608.051 426.194 604.681 421.511 602.984 418.287C600.426 413.429 597.064 408.987 594.291 404.249C588.486 394.333 581.982 384.629 574.501 375.887C567.214 367.371 558.816 359.818 551.089 351.709C548.768 349.273 530.144 325.824 529.404 326.151C535.181 348.459 545.001 367.868 558.439 386.546C565.028 395.702 572.936 401.727 580.957 409.484C587.637 415.944 600.226 422.851 597.916 433.436C608.358 432.431 618.731 430.824 629.267 430.824C627.534 417.471 626.207 404.329 623.114 391.194C619.602 376.28 617.223 360.921 614.252 345.874C611.219 330.514 606.075 315.643 602.875 300.312C599.811 285.631 597.178 270.976 594.932 256.132C593.075 264.357 593.76 273.391 593.102 281.784C592.429 290.358 592.494 298.774 592.718 307.399C593.133 323.418 594.838 339.245 596.288 355.227ZM641.533 278.85C641.591 271.993 642.918 265.229 643.327 258.388C643.453 256.289 645.541 241.97 643.594 241.223C641.993 244.718 641.62 249.191 640.166 252.858C638.713 256.522 636.77 260.013 635.376 263.702C632.356 271.695 631.314 280.738 630.989 289.235C630.253 308.455 629.873 327.632 631.163 346.851C631.715 355.089 632.14 363.342 631.988 371.596C631.822 380.678 630.433 388.562 632.12 397.57C633.789 406.49 634.838 415.374 635.395 424.425C635.785 430.777 635.942 430.328 641.994 429.881C646.364 429.558 650.776 429.903 655.152 429.702C653.106 404.944 652.771 380.135 649.504 355.472C647.836 342.89 647.791 330.126 645.72 317.591C644.691 311.364 642.964 305.262 641.972 299.028C640.906 292.334 641.431 285.595 641.533 278.85ZM198.944 263.27C210.596 264.28 222.989 267.769 234.932 265.465C232.964 264.667 227.812 263.566 230.13 260.414C232.488 257.21 236.461 261.274 238.812 260.854C240.262 260.595 243.465 254.527 244.359 253.27C246.387 250.415 246.631 249.917 250.278 249.185C253.811 248.478 254.612 249.244 255.06 245.727C255.573 241.682 254.176 237.135 254.314 232.999C254.612 224.095 257.481 216.286 260.151 207.909C248.807 210.38 237.715 213.311 226.117 214.903C221.159 215.584 213.445 217.155 208.941 213.78C207.769 212.902 207.957 211.717 206.998 210.7C205.391 208.993 202.409 207.228 200.129 206.742C186.1 203.751 184.731 223.778 191.762 231.272C193.523 233.15 195.973 234.078 197.776 235.798C200.183 238.093 200.38 240.511 200.732 244.014C201.39 250.583 200.495 257.177 197.697 263.186L198.944 263.27ZM369.195 357.818C373.336 358.605 377.659 358.426 381.811 359.097C383.286 359.336 387.709 360.168 389.007 359.305C390.987 357.986 391.691 353.149 392.628 350.897C394.275 346.935 396.606 343.479 398.176 339.445C404.595 322.968 410.58 306.424 418.343 290.509C415.368 289.735 413.083 289.705 410.085 289.305C406.961 288.888 404.129 287.038 401.149 286.243C398.316 285.488 395.349 285.68 392.542 284.802C390.996 284.318 389.67 283.243 388.146 282.867C385.716 282.269 382.881 281.92 381.436 283.516C379.955 285.154 379.435 289.646 378.629 291.762C376.483 297.398 373.99 302.838 372.192 308.604C370.57 313.805 369.029 318.95 367.601 324.198C366.093 329.739 363.12 334.305 361.308 339.598C359.931 343.626 358.631 347.745 358.425 352.04C358.225 356.231 357.616 356.498 361.801 357.168C363.914 357.505 367.207 358.762 369.195 357.818ZM641.693 553.977C642.772 554.48 643.789 554.413 644.743 553.776C635.391 549.82 626.294 544.334 616.538 541.62C607.386 539.076 598.49 536.035 589.673 532.9C582.509 530.353 576.068 528.371 569.59 523.889C565.659 521.168 562.166 518.108 559.464 514.132C556.456 509.705 555.787 503.405 552.53 499.419C548.133 504.254 542.968 507.916 537.766 511.758C535.966 513.087 531.649 515.985 531.033 518.042C530.256 520.638 532.337 523.121 533.367 525.748C536.003 532.476 537.291 539.2 538.721 546.194C539.294 548.997 540.532 553.211 542.831 554.385C544.925 555.453 550.989 554.677 553.594 554.479C567.188 553.447 580.54 552.391 594.216 553.33C609.691 554.393 626.258 555.127 641.693 553.977ZM668.844 429.315C671.315 429.323 673.728 429.014 676.189 429.014C674.768 422.37 678.09 413.774 679.268 407.143C680.585 399.725 681.589 392.055 682.467 384.578C684.319 368.829 685.158 353.271 685.182 337.406C685.205 322.055 687.996 308.027 691.905 293.269C696.102 277.42 702.976 263.168 708.66 247.883C702.426 251.183 698.974 258.905 695.699 264.809C691.558 272.273 688.8 280.538 687.109 288.917C683.846 305.083 680.268 321.297 676.504 337.435C672.584 354.239 670.28 371.197 665.79 387.864C663.6 395.991 660.622 405.991 660.457 414.372C660.388 417.84 659.345 425.101 660.914 428.112C662.382 430.929 665.626 429.602 668.844 429.315ZM295.924 408.465C295.794 410.191 295.671 411.833 295.365 413.537C298.787 413.505 303.121 409.949 306.056 408.353C309.631 406.408 313.211 404.263 316.708 402.309C323.459 398.535 331.123 396.048 338.331 392.948C346.612 389.386 354.223 385.082 362.141 380.794C364.907 379.296 384.786 370.667 384.453 368.31C380.088 368.164 375.724 368.019 371.359 367.874C367.617 367.749 361.822 368.596 358.239 367.438C356.277 366.803 354.073 364.466 353.333 362.637C352.6 360.826 354.247 352.498 353.29 351.967C348.405 356.961 345.333 363.599 340.966 368.986C336.14 374.941 329.904 378.418 323.031 381.582C315.441 385.076 307.586 387.782 299.829 390.777C296.557 392.04 296.622 392.763 296.338 396.355C296.019 400.369 296.053 404.44 295.924 408.465ZM690.331 559.494C698.558 560.378 706.99 559.874 715.282 560.563C718.299 560.814 722.481 561.188 719.446 565.242C717.535 567.796 711.411 566.977 708.634 567.154C701.177 567.629 693.282 567.374 685.808 567.263C684.234 567.241 682.495 566.772 680.905 566.877C679.069 566.998 676.871 568.321 675.198 568.311C674.166 568.304 673.796 567.215 672.907 567.115C670.97 566.897 669.033 566.738 667.079 566.739C637.538 566.745 608.403 566.15 578.936 566.119C564.845 566.104 550.529 565.86 536.444 565.198C533.486 565.058 516.642 565.664 517.109 560.331C517.349 557.585 522.846 557.197 524.852 556.906C526.339 556.69 527.881 556.724 529.371 556.644C533.328 556.432 535.061 557.385 534.226 553.049C531.06 536.605 525.387 523.014 513.265 511.19C503.353 501.521 491.418 492.751 480.191 484.677C466.559 474.873 455.501 464.562 447.408 449.561C442.681 440.8 438.725 431.844 436.297 422.157C435.423 418.673 435.402 414.709 434.332 411.35C433.508 408.763 431.63 406.953 430.525 404.274C416.963 426.958 398.987 445.936 382.505 466.389C374.63 476.161 365.646 485.441 356.237 493.942C353.444 496.465 350.839 499.099 348.232 501.813C346.052 504.086 342.591 506.105 340.751 508.626C338.985 511.044 339.42 510.928 342.107 512.849C345.66 515.386 349.576 517.495 353.184 519.97C358.952 523.926 365.249 527.269 370.406 532.03C375.984 537.179 380.857 543.143 385.733 548.949C388.982 552.819 393.246 557.784 394.064 562.677C394.334 564.296 395.362 568.299 394.006 569.485C392.846 570.498 392.963 570.114 391.524 569.496C389.638 568.686 389.083 566.828 386.779 565.942C380.884 563.677 373.751 564.455 367.617 564.428C361.482 564.4 355.295 565.09 349.162 565.065C335.157 565.007 321.451 566.143 307.45 566.752C292.58 567.399 277.527 565.846 262.707 566.066C251.726 566.229 240.452 565.407 229.168 566.018C223.364 566.332 217.664 565.605 212.004 565.523C204.595 565.416 196.985 566.426 189.512 566.569C177.246 566.807 165.13 566.805 152.789 567.1C126.244 567.737 99.8423 568.394 73.2816 568.815C69.7387 568.871 65.86 568.75 62.3588 569.15C58.6427 569.574 60.5612 570.365 58.0114 571.705C50.8732 575.455 52.5217 561.555 52.6928 558.821C53.6103 544.171 57.3243 529.803 61.7876 515.895C66.0219 502.705 69.4595 488.898 73.0455 475.422C76.9709 460.673 82.0852 446.527 86.7295 431.922C91.4883 416.957 95.3627 401.408 104.006 388.142C105.975 385.121 108.009 381.87 111.176 379.965C114.726 377.829 114.879 379.077 114.876 375.168C114.874 371.488 115.1 366.57 114.232 363.058C113.448 359.884 113.569 361.766 111.804 359.487C110.368 357.633 108.865 356.366 107.834 354.115C101.503 360.543 87.0115 357.151 80.8948 352.522C73.4082 346.856 67.7057 337.298 65.6161 328.195C63.938 320.885 65.9971 306.951 74.0769 303.436C78.0157 301.722 92.4829 300.426 93.0618 294.841C93.3601 291.958 88.2684 287.904 87.0935 285.426C84.9163 280.833 82.8253 274.724 82.2202 269.69C81.0383 259.863 85.4931 248.875 92.5896 242.238C105.608 230.061 128.513 223.812 145.258 231.538C141.72 218.001 139.584 206.324 141.366 192.243C142.901 180.113 150.048 173.326 159.883 167.283C176.666 156.971 199.489 152.901 218.679 155.9C223.04 156.581 227.224 158.043 231.262 159.206C237.128 160.896 244.15 160.333 249.689 163.078C253.704 165.068 256.754 169.032 260.281 171.679C264.398 174.768 267.82 179.38 270.68 183.645C276.798 192.765 274.408 209.691 269.287 218.846C268.189 220.81 266.833 222.462 265.016 223.802C263.124 225.197 260.241 225.631 259.266 227.439C256.769 232.072 259.178 242.102 259.511 247.109C259.899 252.924 256.963 257.291 250.379 257.755C246.57 258.024 246.449 255.811 244.625 260.364C243.443 263.315 242.369 266.53 240.664 269.235C237.147 274.811 230.706 274.267 224.839 274.116C218.047 273.941 211.357 272.866 204.561 272.188C206.356 277.946 211.269 282.416 214.337 287.546C218.485 294.484 220.982 300.235 221.656 308.319C222.174 314.53 221.057 319.435 216.813 324.057C215.056 325.97 213.499 326.064 213.935 328.271C214.201 329.618 216.526 331.839 217.348 332.914C219.525 335.756 222.052 338.366 223.968 341.402C231.339 353.083 233.516 370.889 233.535 384.487C233.535 385.111 233.868 386.437 233.593 387.082C233.389 387.558 231.842 389.067 231.82 389.196C231.517 390.944 233.219 393.942 235.891 394.238C238.696 394.549 243.835 392.204 246.445 391.434C250.621 390.201 254.878 389.291 259.045 388.025C265.775 385.98 272.474 384.349 279.316 382.746C282.408 382.023 285.517 381.42 288.619 380.743C292.152 379.973 293.794 378.484 295.617 382.084C297.182 385.173 296.209 385.733 299.999 384.176C303.761 382.629 307.438 380.712 311.112 378.967C317.591 375.889 325.307 373.145 330.897 368.602C340.22 361.021 343.672 348.949 352.595 340.906C355.08 338.666 356.562 338.627 358.133 335.524C359.815 332.204 360.682 327.945 361.566 324.373C363.115 318.119 364.217 311.842 365.621 305.593C367.371 297.808 371.152 290.758 373.911 283.332C374.986 280.439 375.543 276.762 377.277 274.162C377.737 273.473 378.615 273.084 378.973 272.514C380.206 270.555 380.194 270.017 380.513 267.66C382.008 256.65 388.572 262.442 395.744 264.967C398.766 266.031 413.115 272.93 407.636 277.519C414.167 279.417 424.629 278.385 424.541 287.759C424.496 292.561 421.627 297.699 420.088 302.195C418.72 306.186 417.398 310.194 416.009 314.179C412.966 322.909 409.274 331.378 406.304 340.134C404.95 344.125 403.833 348.21 401.949 351.976C400.287 355.299 396.263 358.961 395.6 362.595C413.005 355.159 429.108 344.408 448.59 345.093C457.121 345.392 464.863 348.983 469.574 356.494C475.481 365.909 479.367 376.45 485.141 385.951C506.143 420.515 531.192 451.916 554.248 485.049C556.019 487.595 558.296 490.003 558.911 493.149C559.312 495.202 558.534 497.255 559.015 499.228C560.012 503.326 565.052 508.443 568.469 510.798C575.019 515.313 585.667 521.681 593.84 521.117C588.71 508.772 588.779 495.246 589.017 482.078C589.244 469.569 590.594 457.161 592.197 444.781C592.559 441.98 592.875 439.384 593.679 436.669C594.602 433.555 595.868 433.85 593.105 431.05C588.852 426.739 583.794 423.192 579.507 418.828C570.234 409.389 560.731 401.991 553.433 390.72C546.493 380 539.171 368.969 534.033 357.229C528.744 345.144 526.63 332.238 524.005 319.439C522.939 314.245 519.054 308.447 519.835 303.024C520.822 296.169 523.995 301.161 525.288 304.849C529.231 316.109 538.463 326.187 546.11 335.242C554.373 345.025 564.478 353.21 573.102 362.708C582.493 373.053 588.925 384.941 597.276 395.984C597.276 382.28 592.604 368.325 590.693 354.768C589.011 342.836 588.483 330.866 587.42 318.882C585.006 291.659 587.092 263.634 590.48 236.606C592.09 223.77 591.177 211.236 591.226 198.356C591.241 194.256 589.547 184.809 591.706 181.171C595.842 174.204 598.255 189.439 598.464 191.71C599.715 205.242 597.472 218.622 598.617 232.096C599.815 246.166 602.413 259.841 604.625 273.748C607.02 288.806 610.92 303.525 614.654 318.294C618.574 333.801 621.871 349.632 626.23 365.015C627.406 360.18 625.756 354.239 625.43 349.315C624.965 342.267 624.057 335.218 623.979 328.153C623.853 316.891 623.765 305.421 624.401 294.212C625.028 283.164 624.839 271.587 628.223 260.943C629.829 255.891 632.184 250.962 634.489 246.203C637.332 240.335 638.337 234.645 639.911 228.404C641.26 223.059 643.233 217.855 644.132 212.403C644.69 209.012 646.249 199.003 650.126 206.587C652.376 210.988 651.404 217.513 651.467 222.242C651.547 228.304 650.62 234.198 650.478 240.235C650.202 252.078 650.003 263.908 649.121 275.732C648.196 288.137 649.004 299.255 651.361 311.478C653.94 324.858 654.695 338.267 656.032 351.811C656.721 358.803 657.883 365.757 658.444 372.76C658.741 376.469 657.219 387.103 659.872 389.744C660.129 383.321 661.967 376.892 663.36 370.633C665.011 363.218 665.677 355.423 666.894 347.902C668.864 335.717 672.687 324.081 675.216 312.033C680.429 287.196 684.761 255.275 706.61 239.018C709.468 236.891 712.61 235.321 715.7 233.571C717.45 232.58 720.049 230.016 722.051 229.569C724.236 229.08 725.147 229.46 726.033 231.998C727.268 235.537 725.009 237.189 722.901 239.76C715.603 248.653 712.486 260.054 707.98 270.484C697.662 294.368 693.097 319.559 693.045 345.376C693.017 358.891 692.087 371.926 690.647 385.359C689.099 399.816 687.059 415.106 682.673 429.013C687.072 430 691.845 428.528 693.039 433.649C693.332 434.907 692.802 436.394 693.126 438.031C693.442 439.622 694.2 441.205 694.649 442.77C695.576 446.007 696.067 449.201 696.518 452.525C698.262 465.371 701.256 477.59 701.575 490.615C701.868 502.655 699.515 514.853 697.346 526.662C695.161 538.555 688.894 548.694 683.961 559.45C686.084 559.45 688.207 559.472 690.331 559.494Z" fill="#16393A"/>
<path fill-rule="evenodd" clip-rule="evenodd" d="M411.109 532.154C408.769 532.817 397.474 534.067 397.476 537.616C397.477 539.745 408.758 539.703 410.754 539.934C410.873 537.342 410.991 534.748 411.109 532.154ZM436.042 556.646C442.551 557.885 451.386 556.142 455.548 550.396C457.492 547.711 458.414 543.627 459.047 540.423C459.653 537.369 461.518 529.749 460.248 526.886C458.69 523.371 443.734 527.045 439.379 527.449C431.781 528.151 423.924 528.234 416.32 527.737C416.32 535.599 415.919 543.261 420.536 550.027C423.868 554.909 430.124 556.062 436.042 556.646ZM434.733 566.356C427.661 563.764 420.236 565.448 415.63 557.845C414.462 555.916 413.478 553.842 412.771 551.7C412.425 550.761 412.157 549.8 411.966 548.815C412.326 546.696 411.55 546.098 409.64 547.022C405.892 546.292 401.781 548.869 397.832 548.109C388.255 546.268 389.995 532.53 396.422 527.775C397.692 526.835 398.96 526.574 400.413 526.109C403.617 525.087 405.351 526.229 408.281 525.939C410.649 525.704 411.3 523.218 413.845 522.123C415.511 521.406 417.824 521.461 419.576 521.389C428.742 521.012 437.938 521.016 447.164 520.417C451.467 520.138 456.113 520.821 460.328 520.085C462.301 519.739 462.018 518.424 463.887 519.578C465.822 520.773 464.986 525.191 464.889 526.953C464.324 537.141 463.718 548.068 458.268 556.975C453.281 565.124 443.469 565.958 434.733 566.356Z" fill="#16393A"/>
<path fill-rule="evenodd" clip-rule="evenodd" d="M61.2219 569.163C63.4974 569.138 65.7721 569.114 68.0398 569.091C65.7615 569.115 63.4917 569.139 61.2219 569.163Z" fill="#16393A"/>
<path fill-rule="evenodd" clip-rule="evenodd" d="M693.059 351.938C693.055 349.749 693.05 347.561 693.045 345.376C693.049 347.566 693.054 349.752 693.059 351.938Z" fill="#16393A"/>
<path fill-rule="evenodd" clip-rule="evenodd" d="M114.239 360.926C114.232 363.058 114.225 365.191 114.218 367.318C114.225 365.184 114.232 363.055 114.239 360.926Z" fill="#16393A"/>
<path fill-rule="evenodd" clip-rule="evenodd" d="M303.381 566.746C305.191 566.749 307.002 566.751 308.804 566.756C306.99 566.754 305.186 566.75 303.381 566.746Z" fill="#16393A"/>
<path fill-rule="evenodd" clip-rule="evenodd" d="M193.462 566.311C195.272 566.317 197.082 566.322 198.884 566.33C197.07 566.325 195.266 566.317 193.462 566.311Z" fill="#16393A"/>
<path fill-rule="evenodd" clip-rule="evenodd" d="M589.256 477.764C589.177 479.203 589.097 480.642 589.017 482.078C589.097 480.638 589.177 479.201 589.256 477.764Z" fill="#16393A"/>
<path fill-rule="evenodd" clip-rule="evenodd" d="M690.331 559.494C688.932 559.479 687.533 559.465 686.134 559.45C687.539 558.864 688.938 558.89 690.331 559.494Z" fill="#16393A"/>
<path fill-rule="evenodd" clip-rule="evenodd" d="M566.126 565.866C567.131 565.85 568.135 565.835 569.129 565.818C568.123 565.833 567.124 565.85 566.126 565.866Z" fill="#16393A"/>
<path fill-rule="evenodd" clip-rule="evenodd" d="M692.515 369.696C692.539 368.608 692.564 367.521 692.589 366.437C692.564 367.526 692.539 368.611 692.515 369.696Z" fill="#16393A"/>
<path fill-rule="evenodd" clip-rule="evenodd" d="M598.618 232.096C598.535 230.974 598.452 229.853 598.369 228.734C598.452 229.857 598.535 230.977 598.618 232.096Z" fill="#16393A"/>
<path fill-rule="evenodd" clip-rule="evenodd" d="M693.01 356.223C693.024 355.098 693.037 353.974 693.051 352.853C693.037 353.979 693.024 355.101 693.01 356.223Z" fill="#16393A"/>
<path fill-rule="evenodd" clip-rule="evenodd" d="M377.254 564.471C378.147 564.485 379.039 564.497 379.924 564.509C379.03 564.495 378.142 564.483 377.254 564.471Z" fill="#16393A"/>
<path fill-rule="evenodd" clip-rule="evenodd" d="M607.209 566.305C608.081 566.322 608.954 566.34 609.819 566.358C608.943 566.341 608.076 566.323 607.209 566.305Z" fill="#16393A"/>
<path fill-rule="evenodd" clip-rule="evenodd" d="M701.475 487.23C701.412 486.244 701.349 485.258 701.288 484.273C701.35 485.26 701.413 486.245 701.475 487.23Z" fill="#16393A"/>
<path fill-rule="evenodd" clip-rule="evenodd" d="M685.808 567.264C686.518 567.26 687.229 567.256 687.931 567.254C687.218 567.259 686.513 567.262 685.808 567.264Z" fill="#16393A"/>
<path fill-rule="evenodd" clip-rule="evenodd" d="M589.022 566.35C589.726 566.333 590.429 566.316 591.125 566.299C590.419 566.317 589.72 566.334 589.022 566.35Z" fill="#16393A"/>
<path fill-rule="evenodd" clip-rule="evenodd" d="M430.899 565.812C431.674 565.808 432.448 565.804 433.215 565.798C432.439 565.802 431.669 565.807 430.899 565.812Z" fill="#16393A"/>
<path fill-rule="evenodd" clip-rule="evenodd" d="M252.333 565.809C253.069 565.814 253.806 565.82 254.534 565.826C253.795 565.822 253.064 565.815 252.333 565.809Z" fill="#16393A"/>
<path fill-rule="evenodd" clip-rule="evenodd" d="M208.894 565.928C209.645 565.887 210.394 565.844 211.138 565.803C210.385 565.846 209.64 565.887 208.894 565.928Z" fill="#16393A"/>
<path fill-rule="evenodd" clip-rule="evenodd" d="M416.864 279.516C415.748 279.42 414.631 279.324 413.514 279.227C414.632 279.305 415.815 278.644 416.864 279.516Z" fill="#16393A"/>
<path fill-rule="evenodd" clip-rule="evenodd" d="M701.581 559.919C700.479 559.808 699.378 559.696 698.277 559.584C699.379 559.696 700.479 559.808 701.581 559.919Z" fill="#16393A"/>
<path fill-rule="evenodd" clip-rule="evenodd" d="M624.761 286.307C624.688 287.273 624.613 288.24 624.54 289.203C624.614 288.236 624.688 287.271 624.761 286.307Z" fill="#16393A"/>
<path fill-rule="evenodd" clip-rule="evenodd" d="M693.287 326.592C693.362 325.676 693.437 324.761 693.512 323.848C693.437 324.766 693.361 325.679 693.287 326.592Z" fill="#16393A"/>
<path fill-rule="evenodd" clip-rule="evenodd" d="M624.323 301.295C624.244 302.26 624.164 303.224 624.086 304.186C624.165 303.22 624.244 302.257 624.323 301.295Z" fill="#16393A"/>
<path fill-rule="evenodd" clip-rule="evenodd" d="M692.82 363.57C692.813 362.637 692.806 361.705 692.8 360.776C693.401 361.705 693.377 362.635 692.82 363.57Z" fill="#16393A"/>
<path fill-rule="evenodd" clip-rule="evenodd" d="M589.272 497.448C589.264 498.382 589.256 499.317 589.246 500.247C588.63 499.305 588.753 498.374 589.272 497.448Z" fill="#16393A"/>
<path fill-rule="evenodd" clip-rule="evenodd" d="M659.468 389.342C659.361 388.397 659.253 387.45 659.145 386.507C659.253 387.454 659.361 388.399 659.468 389.342Z" fill="#16393A"/>
<path fill-rule="evenodd" clip-rule="evenodd" d="M78.2175 302.538C77.4873 303.503 76.4927 302.842 75.6246 302.959C76.4899 302.819 77.3537 302.679 78.2175 302.538Z" fill="#16393A"/>
<path fill-rule="evenodd" clip-rule="evenodd" d="M439.291 521.087C438.368 521.089 437.446 521.089 436.523 521.091C437.447 521.089 438.368 521.088 439.291 521.087Z" fill="#16393A"/>
<path fill-rule="evenodd" clip-rule="evenodd" d="M586.675 306.508C586.761 307.294 586.847 308.08 586.933 308.863C586.847 308.075 586.761 307.292 586.675 306.508Z" fill="#16393A"/>
<path fill-rule="evenodd" clip-rule="evenodd" d="M130.769 228.472C129.841 228.491 128.914 228.509 127.987 228.527C128.904 227.987 129.829 227.831 130.769 228.472Z" fill="#16393A"/>
<path fill-rule="evenodd" clip-rule="evenodd" d="M624.3 314.887C624.24 315.711 624.18 316.534 624.121 317.354C624.181 316.53 624.24 315.709 624.3 314.887Z" fill="#16393A"/>
<path fill-rule="evenodd" clip-rule="evenodd" d="M598.867 213.746C598.939 212.995 599.01 212.244 599.082 211.497C599.01 212.25 598.939 212.998 598.867 213.746Z" fill="#16393A"/>
<path fill-rule="evenodd" clip-rule="evenodd" d="M591.579 211.394C591.506 212.208 591.433 213.024 591.361 213.836C591.434 213.02 591.506 212.206 591.579 211.394Z" fill="#16393A"/>
<path fill-rule="evenodd" clip-rule="evenodd" d="M188.728 156.965C187.784 157.08 186.84 157.194 185.897 157.308C186.841 157.194 187.784 157.08 188.728 156.965Z" fill="#16393A"/>
<path fill-rule="evenodd" clip-rule="evenodd" d="M120.567 229.121C119.598 229.22 118.63 229.319 117.662 229.418C118.631 229.319 119.599 229.22 120.567 229.121Z" fill="#16393A"/>
<path fill-rule="evenodd" clip-rule="evenodd" d="M651.252 231.51C651.311 230.752 651.37 229.993 651.429 229.239C651.37 229.998 651.311 230.754 651.252 231.51Z" fill="#16393A"/>
<path fill-rule="evenodd" clip-rule="evenodd" d="M88.7809 356.628C89.3386 356.636 89.8956 356.644 90.4448 356.652C89.885 356.644 89.3329 356.636 88.7809 356.628Z" fill="#16393A"/>
<path fill-rule="evenodd" clip-rule="evenodd" d="M591.607 450.196C591.552 451.036 591.496 451.874 591.44 452.712C591.497 451.872 591.552 451.034 591.607 450.196Z" fill="#16393A"/>
<path fill-rule="evenodd" clip-rule="evenodd" d="M648.502 286.822C648.479 286.013 648.457 285.204 648.434 284.397C648.458 285.207 648.48 286.014 648.502 286.822Z" fill="#16393A"/>
<path fill-rule="evenodd" clip-rule="evenodd" d="M212.484 155.05C211.623 155.05 210.763 155.051 209.904 155.051C210.765 154.46 211.624 154.475 212.484 155.05Z" fill="#16393A"/>
<path fill-rule="evenodd" clip-rule="evenodd" d="M442.16 345.48C441.218 345.504 440.275 345.528 439.334 345.552C440.26 344.898 441.203 344.882 442.16 345.48Z" fill="#16393A"/>
<path fill-rule="evenodd" clip-rule="evenodd" d="M524.505 564.438C525.063 564.45 525.622 564.462 526.174 564.475C525.612 564.465 525.058 564.451 524.505 564.438Z" fill="#16393A"/>
<path fill-rule="evenodd" clip-rule="evenodd" d="M545.54 565.421C546.097 565.402 546.655 565.382 547.205 565.363C546.645 565.383 546.092 565.402 545.54 565.421Z" fill="#16393A"/>
<path fill-rule="evenodd" clip-rule="evenodd" d="M216.345 565.81C216.927 565.825 217.508 565.84 218.082 565.854C217.498 565.839 216.922 565.825 216.345 565.81Z" fill="#16393A"/>
<path fill-rule="evenodd" clip-rule="evenodd" d="M700.992 477.869C700.909 477.069 700.826 476.269 700.743 475.472C700.826 476.274 700.909 477.071 700.992 477.869Z" fill="#16393A"/>
<path fill-rule="evenodd" clip-rule="evenodd" d="M625.013 343.024C625.079 343.786 625.145 344.549 625.21 345.306C625.144 344.543 625.079 343.783 625.013 343.024Z" fill="#16393A"/>
<path fill-rule="evenodd" clip-rule="evenodd" d="M654.252 329.936C654.162 329.127 654.071 328.319 653.981 327.513C654.072 328.322 654.162 329.129 654.252 329.936Z" fill="#16393A"/>
<path fill-rule="evenodd" clip-rule="evenodd" d="M221.065 566.292C221.651 566.283 222.239 566.274 222.819 566.266C222.23 566.276 221.647 566.284 221.065 566.292Z" fill="#16393A"/>
<path fill-rule="evenodd" clip-rule="evenodd" d="M434.733 566.356C435.305 566.33 435.874 566.304 436.438 566.279C435.867 566.305 435.3 566.331 434.733 566.356Z" fill="#16393A"/>
<path fill-rule="evenodd" clip-rule="evenodd" d="M649.48 270.908C649.454 270.089 649.428 269.27 649.403 268.452C649.429 269.272 649.454 270.09 649.48 270.908Z" fill="#16393A"/>
<path fill-rule="evenodd" clip-rule="evenodd" d="M165.43 566.827C166.003 566.823 166.574 566.818 167.139 566.814C166.564 566.819 165.998 566.824 165.43 566.827Z" fill="#16393A"/>
<path fill-rule="evenodd" clip-rule="evenodd" d="M649.24 566.819C649.828 566.825 650.417 566.831 650.998 566.838C650.407 566.832 649.823 566.826 649.24 566.819Z" fill="#16393A"/>
<path fill-rule="evenodd" clip-rule="evenodd" d="M661.947 566.749C662.515 566.789 663.083 566.83 663.644 566.869C663.074 566.829 662.511 566.789 661.947 566.749Z" fill="#16393A"/>
<path fill-rule="evenodd" clip-rule="evenodd" d="M667.079 566.739C667.657 566.756 668.236 566.773 668.807 566.786C668.227 566.768 667.653 566.754 667.079 566.739Z" fill="#16393A"/>
<path fill-rule="evenodd" clip-rule="evenodd" d="M693.429 333.182C693.39 332.376 693.353 331.57 693.315 330.766C693.354 331.573 693.39 332.378 693.429 333.182Z" fill="#16393A"/>
<path fill-rule="evenodd" clip-rule="evenodd" d="M305.111 556.179C306.87 556.088 308.631 555.996 310.391 555.905C308.631 555.996 306.87 556.088 305.111 556.179Z" fill="#16393A"/>
<path fill-rule="evenodd" clip-rule="evenodd" d="M198.944 263.27C200.471 263.403 201.999 263.536 203.525 263.668C201.997 263.535 200.471 263.402 198.944 263.27Z" fill="#16393A"/>
<path fill-rule="evenodd" clip-rule="evenodd" d="M630.25 329.775C630.298 331.234 630.347 332.694 630.394 334.149C630.346 332.689 630.298 331.232 630.25 329.775Z" fill="#16393A"/>
<path fill-rule="evenodd" clip-rule="evenodd" d="M661.776 558.676C663.371 558.773 664.965 558.869 666.559 558.966C664.955 559.038 663.326 559.496 661.776 558.676Z" fill="#16393A"/>
<path fill-rule="evenodd" clip-rule="evenodd" d="M652.339 386.025C652.351 384.633 652.363 383.24 652.374 381.851C652.362 383.244 652.351 384.635 652.339 386.025Z" fill="#16393A"/>
<path fill-rule="evenodd" clip-rule="evenodd" d="M648.257 429.771C649.656 429.79 651.057 429.809 652.455 429.827C651.055 429.808 649.656 429.79 648.257 429.771Z" fill="#16393A"/>
<path fill-rule="evenodd" clip-rule="evenodd" d="M296.025 405.292C295.99 406.354 295.956 407.415 295.922 408.471C295.958 407.408 295.992 406.351 296.025 405.292Z" fill="#16393A"/>
<path fill-rule="evenodd" clip-rule="evenodd" d="M671.545 360.362C671.487 361.418 671.43 362.473 671.374 363.524C671.432 362.467 671.489 361.415 671.545 360.362Z" fill="#16393A"/>
<path fill-rule="evenodd" clip-rule="evenodd" d="M641.693 553.977C642.711 553.908 643.729 553.839 644.745 553.773C643.979 554.386 643.209 554.437 641.693 553.977Z" fill="#16393A"/>
<path fill-rule="evenodd" clip-rule="evenodd" d="M634.881 415.946C634.951 417.084 635.021 418.222 635.09 419.357C635.02 418.218 634.951 417.082 634.881 415.946Z" fill="#16393A"/>
<path fill-rule="evenodd" clip-rule="evenodd" d="M254.281 236.289C254.292 235.19 254.302 234.09 254.314 232.995C254.303 234.096 254.293 235.192 254.281 236.289Z" fill="#16393A"/>
<path fill-rule="evenodd" clip-rule="evenodd" d="M636.113 430.001L639.907 429.918C638.655 430.523 637.39 430.544 636.113 430.001Z" fill="#16393A"/>
<path fill-rule="evenodd" clip-rule="evenodd" d="M671.114 438.113C670.22 438.121 669.325 438.128 668.437 438.137C669.334 438.13 670.225 438.122 671.114 438.113Z" fill="#16393A"/>
<path fill-rule="evenodd" clip-rule="evenodd" d="M343.491 554.415C344.73 554.431 345.968 554.447 347.207 554.463C345.959 555.088 344.719 555.177 343.491 554.415Z" fill="#16393A"/>
<path fill-rule="evenodd" clip-rule="evenodd" d="M110.197 558.068C111.453 557.956 112.711 557.844 113.968 557.731C112.711 557.844 111.453 557.956 110.197 558.068Z" fill="#16393A"/>
<path fill-rule="evenodd" clip-rule="evenodd" d="M630.687 339.149C630.748 340.292 630.81 341.434 630.871 342.573C630.81 341.429 630.748 340.29 630.687 339.149Z" fill="#16393A"/>
<path fill-rule="evenodd" clip-rule="evenodd" d="M229.497 265.952C230.557 265.43 231.625 265.342 232.704 265.895C231.634 265.914 230.566 265.934 229.497 265.952Z" fill="#16393A"/>
<path fill-rule="evenodd" clip-rule="evenodd" d="M596.026 352.342C596.113 353.305 596.201 354.269 596.289 355.23C596.2 354.265 596.113 353.303 596.026 352.342Z" fill="#16393A"/>
<path fill-rule="evenodd" clip-rule="evenodd" d="M685.537 329.855C684.992 328.912 685.011 327.974 685.564 327.045C685.554 327.983 685.546 328.919 685.537 329.855Z" fill="#16393A"/>
<path fill-rule="evenodd" clip-rule="evenodd" d="M630.86 297.123C630.86 298.077 630.861 299.031 630.861 299.982C630.86 299.026 630.86 298.075 630.86 297.123Z" fill="#16393A"/>
<path fill-rule="evenodd" clip-rule="evenodd" d="M668.844 429.315C669.935 428.98 671.025 428.507 672.111 429.326C671.022 429.322 669.933 429.318 668.844 429.315Z" fill="#16393A"/>
<path fill-rule="evenodd" clip-rule="evenodd" d="M316.385 555.748C317.483 555.646 318.58 555.544 319.677 555.441C318.58 555.544 317.483 555.646 316.385 555.748Z" fill="#16393A"/>
<path fill-rule="evenodd" clip-rule="evenodd" d="M165.928 555.75C166.933 555.308 167.936 555.076 168.926 555.784C167.926 555.772 166.927 555.761 165.928 555.75Z" fill="#16393A"/>
<path fill-rule="evenodd" clip-rule="evenodd" d="M371.536 554.33C372.611 553.861 373.683 553.603 374.744 554.364C373.674 554.352 372.605 554.342 371.536 554.33Z" fill="#16393A"/>
<path fill-rule="evenodd" clip-rule="evenodd" d="M132.262 415.078C132.343 416.049 132.424 417.021 132.504 417.99C132.422 417.018 132.342 416.048 132.262 415.078Z" fill="#16393A"/>
<path fill-rule="evenodd" clip-rule="evenodd" d="M381.811 359.097C382.869 358.713 383.923 358.512 384.961 359.154C383.911 359.135 382.861 359.116 381.811 359.097Z" fill="#16393A"/>
<path fill-rule="evenodd" clip-rule="evenodd" d="M630.67 388.028C630.729 388.978 630.787 389.927 630.845 390.875C630.787 389.925 630.728 388.976 630.67 388.028Z" fill="#16393A"/>
<path fill-rule="evenodd" clip-rule="evenodd" d="M131.579 302.312C131.491 303.077 131.403 303.843 131.317 304.604C131.404 303.837 131.491 303.075 131.579 302.312Z" fill="#16393A"/>
<path fill-rule="evenodd" clip-rule="evenodd" d="M70.2829 524.219C70.2285 524.964 70.1748 525.709 70.1211 526.449C70.1769 525.703 70.2299 524.961 70.2829 524.219Z" fill="#16393A"/>
<path fill-rule="evenodd" clip-rule="evenodd" d="M652.808 393.055C652.749 392.285 652.689 391.514 652.63 390.748C652.689 391.519 652.749 392.287 652.808 393.055Z" fill="#16393A"/>
<path fill-rule="evenodd" clip-rule="evenodd" d="M575.793 552.893C576.735 552.899 577.677 552.906 578.619 552.913C577.677 552.906 576.734 552.899 575.793 552.893Z" fill="#16393A"/>
<path fill-rule="evenodd" clip-rule="evenodd" d="M295.669 411.846C295.845 412.407 296.021 412.968 296.197 413.53C295.021 413.814 294.845 413.253 295.669 411.846Z" fill="#16393A"/>
<path fill-rule="evenodd" clip-rule="evenodd" d="M366.324 357.83C367.281 357.826 368.238 357.822 369.195 357.818C368.24 358.272 367.283 358.584 366.324 357.83Z" fill="#16393A"/>
<path fill-rule="evenodd" clip-rule="evenodd" d="M132.798 419.679C132.831 420.529 132.863 421.379 132.895 422.225C132.861 421.375 132.83 420.527 132.798 419.679Z" fill="#16393A"/>
<path fill-rule="evenodd" clip-rule="evenodd" d="M142.924 556.68C143.848 556.679 144.771 556.679 145.695 556.678C144.771 556.679 143.848 556.679 142.924 556.68Z" fill="#16393A"/>
<path fill-rule="evenodd" clip-rule="evenodd" d="M598.349 428.635C598.383 429.417 598.418 430.2 598.452 430.978C598.419 430.193 598.384 429.415 598.349 428.635Z" fill="#16393A"/>
<path fill-rule="evenodd" clip-rule="evenodd" d="M123.311 557.632C124.219 557.03 125.13 557.082 126.042 557.623C125.131 557.626 124.221 557.63 123.311 557.632Z" fill="#16393A"/>
<path fill-rule="evenodd" clip-rule="evenodd" d="M147.23 291.385C147.279 292.183 147.329 292.982 147.38 293.776C147.331 292.976 147.281 292.18 147.23 291.385Z" fill="#16393A"/>
<path fill-rule="evenodd" clip-rule="evenodd" d="M118.585 557.716C119.529 557.72 120.473 557.724 121.417 557.728C120.47 558.373 119.526 558.403 118.585 557.716Z" fill="#16393A"/>
<path fill-rule="evenodd" clip-rule="evenodd" d="M641.533 278.85C641.541 278.039 641.548 277.229 641.555 276.42C641.547 277.232 641.54 278.041 641.533 278.85Z" fill="#16393A"/>
<path fill-rule="evenodd" clip-rule="evenodd" d="M207.963 264.665C208.866 264.783 209.77 264.901 210.672 265.018C209.769 264.9 208.865 264.783 207.963 264.665Z" fill="#16393A"/>
<path fill-rule="evenodd" clip-rule="evenodd" d="M128.243 334.671C128.255 335.428 128.267 336.186 128.281 336.94C128.269 336.181 128.257 335.426 128.243 334.671Z" fill="#16393A"/>
<path fill-rule="evenodd" clip-rule="evenodd" d="M647.615 334.563C647.565 333.791 647.516 333.019 647.466 332.251C647.516 333.024 647.566 333.794 647.615 334.563Z" fill="#16393A"/>
<path fill-rule="evenodd" clip-rule="evenodd" d="M436.911 556.811C438.025 556.912 439.14 557.013 440.254 557.114C439.139 557.013 438.025 556.912 436.911 556.811Z" fill="#16393A"/>
<path fill-rule="evenodd" clip-rule="evenodd" d="M433.186 527.915C432.583 527.924 431.982 527.934 431.385 527.946C431.989 527.939 432.588 527.927 433.186 527.915Z" fill="#16393A"/>
<path fill-rule="evenodd" clip-rule="evenodd" d="M433.237 556.369C434.172 556.461 435.108 556.554 436.042 556.645C435.107 556.553 434.172 556.461 433.237 556.369Z" fill="#16393A"/>
<path fill-rule="evenodd" clip-rule="evenodd" d="M264.983 493.321C266.199 500.205 255.517 506.936 254.67 497.152C254.36 493.573 256.75 491.058 259.425 488.87C263.223 485.766 265.344 488.739 264.983 493.321Z" fill="#16393A"/>
<path fill-rule="evenodd" clip-rule="evenodd" d="M147.235 409.343C149.751 410.374 168.978 416.648 158.991 419.804C156.347 420.639 152.351 420.764 150.059 419.292C147.302 417.521 144.522 412.295 147.235 409.343Z" fill="#16393A"/>
<path fill-rule="evenodd" clip-rule="evenodd" d="M151.966 316.129C158.492 315.371 164.505 326.104 156.459 325.756C150.602 325.502 142.726 316.129 151.966 316.129Z" fill="#16393A"/>
<path fill-rule="evenodd" clip-rule="evenodd" d="M175.311 342.447C180.761 347.208 170.66 357.863 166.65 353.739C164.602 351.632 166.491 347.094 168.181 345.332C169.916 343.523 173.002 343.183 175.311 342.447Z" fill="#16393A"/>
<path fill-rule="evenodd" clip-rule="evenodd" d="M191.534 465.875C188.317 466.387 174.17 471.016 177.12 462.607C178.246 459.401 181.384 460.352 184.253 460.499C188.878 460.736 191.534 460.514 191.534 465.875Z" fill="#16393A"/>
<path fill-rule="evenodd" clip-rule="evenodd" d="M182.215 487.533C187.031 490.114 179.991 504.552 175.999 501.48C170.461 497.218 178.036 488.83 182.215 487.533Z" fill="#16393A"/>
<path fill-rule="evenodd" clip-rule="evenodd" d="M203.22 475.926C205.562 474.969 216.601 485.602 212.399 488.56C210.245 490.076 206.164 487.477 204.865 485.91C202.431 482.971 202.21 479.345 203.22 475.926Z" fill="#16393A"/>
<path fill-rule="evenodd" clip-rule="evenodd" d="M139.527 389.012C141.921 389.405 146.053 389.53 146.208 392.898C146.344 395.858 142.637 396.817 140.028 397.05C137.321 397.29 133.737 396.525 133.685 393.117C133.631 389.439 139.442 389.661 139.527 389.012Z" fill="#16393A"/>
<path fill-rule="evenodd" clip-rule="evenodd" d="M198.551 535.575C201.1 537.125 212.99 542.704 207.893 546.735C205.986 548.243 200.204 545.128 198.903 543.544C197.35 541.654 195.832 537.227 198.551 535.575Z" fill="#16393A"/>
<path fill-rule="evenodd" clip-rule="evenodd" d="M231.604 495.09C231.235 488.932 241.611 486.48 239.46 495.222C238.853 497.687 238.267 501.428 235.224 501.571C231.627 501.74 231.497 497.478 231.604 495.09Z" fill="#16393A"/>
<path fill-rule="evenodd" clip-rule="evenodd" d="M199.552 387.998C199.624 392.67 190.685 396.79 190.615 389.385C190.554 382.768 199.886 380.831 199.552 387.998Z" fill="#16393A"/>
<path fill-rule="evenodd" clip-rule="evenodd" d="M193.649 363.667C195.852 364.377 198.779 364.743 198.973 367.546C199.178 370.512 196.427 371.832 193.951 371.665C191.921 371.529 188.917 370.024 188.548 367.818C188.007 364.58 191.163 364.369 193.649 363.667Z" fill="#16393A"/>
<path fill-rule="evenodd" clip-rule="evenodd" d="M152.69 449.199C152.653 445.344 160.368 440.711 161.788 445.184C162.243 446.615 158.607 453.034 157.397 453.514C154.197 454.786 153.751 451.822 152.69 449.199Z" fill="#16393A"/>
<path fill-rule="evenodd" clip-rule="evenodd" d="M215.91 513.361C213.303 515.698 205.483 522.262 206.068 513.45C206.441 507.822 216.598 508.115 215.91 513.361Z" fill="#16393A"/>
<path fill-rule="evenodd" clip-rule="evenodd" d="M343.322 538.545C344.177 534.84 356.412 541.267 352.329 545.947C350.959 547.518 347.376 546.096 345.998 545.165C343.271 543.323 343.212 541.622 343.322 538.545Z" fill="#16393A"/>
<path fill-rule="evenodd" clip-rule="evenodd" d="M275.154 459.238C275.631 457.587 276.161 454.666 277.735 453.612C280.582 451.705 283.061 454.582 283.062 457.614C283.063 463.27 276.633 465.054 275.154 459.238Z" fill="#16393A"/>
<path fill-rule="evenodd" clip-rule="evenodd" d="M244.83 525.365C248.007 526.094 255.08 533.827 250.978 536.981C247.03 540.017 241.779 527.675 244.83 525.365Z" fill="#16393A"/>
<path fill-rule="evenodd" clip-rule="evenodd" d="M247.854 466.834C251.939 467.16 257.553 473.783 251.204 474.836C246.238 475.66 240.463 468.456 247.854 466.834Z" fill="#16393A"/>
<path fill-rule="evenodd" clip-rule="evenodd" d="M284.831 497.312C285.856 493.857 295.985 497.56 295.416 501.364C295.114 503.386 290.972 503.861 288.795 503.326C285.59 502.539 284.758 500.433 284.831 497.312Z" fill="#16393A"/>
<path fill-rule="evenodd" clip-rule="evenodd" d="M165.426 304.346C165.499 299.88 174.07 298.059 174.698 302.56C175.266 306.627 165.318 310.954 165.426 304.346Z" fill="#16393A"/>
<path fill-rule="evenodd" clip-rule="evenodd" d="M282 543.336C282.617 541.09 282.884 538.387 285.685 538.091C288.893 537.752 288.798 540.215 288.422 542.768C287.395 549.712 283.476 550.059 282 543.336Z" fill="#16393A"/>
<path fill-rule="evenodd" clip-rule="evenodd" d="M146.648 357.488C142.179 358.498 133.996 349.88 138.998 348.031C142.522 346.727 146.648 354.888 146.648 357.488Z" fill="#16393A"/>
<path fill-rule="evenodd" clip-rule="evenodd" d="M203.639 424.426C201.365 425.499 200.841 426.149 199.094 424.389C197.573 422.857 197.64 418.587 198.946 416.993C203.946 410.888 203.829 421.956 203.639 424.426Z" fill="#16393A"/>
<path fill-rule="evenodd" clip-rule="evenodd" d="M222.192 412.045C224.563 412.347 231.61 419.041 227.941 421.701C223.444 424.96 220.9 414.75 222.192 412.045Z" fill="#16393A"/>
<path fill-rule="evenodd" clip-rule="evenodd" d="M273.503 413.807C271.779 420.455 267.476 415.982 267.72 410.952C268.112 402.895 272.571 409.912 273.503 413.807Z" fill="#16393A"/>
<path fill-rule="evenodd" clip-rule="evenodd" d="M299.666 520.571C302.583 521.779 306.541 532.944 302.376 533.542C297.697 534.214 299.255 522.896 299.666 520.571Z" fill="#16393A"/>
<path fill-rule="evenodd" clip-rule="evenodd" d="M263.244 514.299C266.581 513.171 267.804 520.221 265.864 521.53C261.597 524.411 262.496 515.962 263.244 514.299Z" fill="#16393A"/>
<path fill-rule="evenodd" clip-rule="evenodd" d="M231.604 495.09C231.561 496.026 231.519 496.962 231.476 497.892C231.517 496.955 231.56 496.023 231.604 495.09Z" fill="#16393A"/>
<path fill-rule="evenodd" clip-rule="evenodd" d="M343.322 538.545C343.288 539.505 343.253 540.464 343.217 541.419C343.25 540.458 343.286 539.501 343.322 538.545Z" fill="#16393A"/>
<path fill-rule="evenodd" clip-rule="evenodd" d="M284.832 497.312C284.813 498.126 284.793 498.94 284.772 499.749C284.79 498.933 284.812 498.123 284.832 497.312Z" fill="#16393A"/>
<path fill-rule="evenodd" clip-rule="evenodd" d="M653.967 483.303C660.886 483.08 668.605 480.473 675.403 481.302C677.275 481.531 681.584 482.003 678.585 484.783C677.151 486.112 670.285 485.425 668.207 485.866C655.503 488.559 641.082 490.296 628.057 490.072C621.959 489.967 615.816 489.478 609.721 489.155C603.631 488.833 603.032 486.354 609.885 485.566C617.003 484.747 624.307 485.051 631.46 485.043C638.979 485.033 646.462 483.805 653.967 483.303Z" fill="#16393A"/>
<path fill-rule="evenodd" clip-rule="evenodd" d="M669.157 466.61C668.491 468.509 667.906 472.866 665.354 473.152C661.78 473.552 661.189 467.407 661.32 465.16C661.48 462.448 662.455 457.941 665.822 458.881C668.666 459.674 668.95 464.439 669.157 466.61Z" fill="#16393A"/>
<path fill-rule="evenodd" clip-rule="evenodd" d="M647.519 465.22C648.042 463.187 648.298 458.603 651.17 458.447C654.379 458.274 655.296 463.05 655.275 465.339C655.254 467.511 654.451 471.614 651.896 472.116C648.431 472.797 648.122 467.544 647.519 465.22Z" fill="#16393A"/>
<path fill-rule="evenodd" clip-rule="evenodd" d="M611.485 468.867C610.445 471.31 609.758 474.676 606.54 473.01C604.052 471.722 603.705 466.525 604.174 464.146C604.66 461.682 605.69 458.854 608.518 459.963C611.78 461.242 611.451 466.176 611.485 468.867Z" fill="#16393A"/>
<path fill-rule="evenodd" clip-rule="evenodd" d="M638.773 466.61C635.706 475.921 630.111 469.622 632.236 462.671C634.457 455.405 638.491 462.462 638.773 466.61Z" fill="#16393A"/>
<path fill-rule="evenodd" clip-rule="evenodd" d="M623.829 467.071C622.977 468.71 622.071 472.247 619.775 471.875C616.96 471.417 616.87 465.993 617.179 463.973C617.448 462.205 618.241 459.258 620.597 459.296C624.001 459.351 623.773 464.949 623.829 467.071Z" fill="#16393A"/>
<path fill-rule="evenodd" clip-rule="evenodd" d="M685.011 468.858C682.728 473.988 679.587 469.569 680.593 465.926C682.083 460.523 684.882 465.31 685.011 468.858Z" fill="#16393A"/>
<path fill-rule="evenodd" clip-rule="evenodd" d="M629.093 485.049C626.6 485.039 624.105 485.03 621.612 485.02C624.108 484.55 626.603 484.367 629.093 485.049Z" fill="#16393A"/>
<path fill-rule="evenodd" clip-rule="evenodd" d="M678.647 481.28C676.484 481.295 674.322 481.308 672.16 481.322C674.319 480.675 676.481 480.661 678.647 481.28Z" fill="#16393A"/>
<path fill-rule="evenodd" clip-rule="evenodd" d="M653.967 483.302C652.236 483.418 650.505 483.534 648.775 483.65C650.506 483.534 652.236 483.418 653.967 483.302Z" fill="#16393A"/>
<path fill-rule="evenodd" clip-rule="evenodd" d="M611.485 468.867C611.47 467.623 611.453 466.378 611.438 465.137C612.078 466.374 612.033 467.617 611.485 468.867Z" fill="#16393A"/>
<path fill-rule="evenodd" clip-rule="evenodd" d="M625.054 490.046C626.057 490.055 627.061 490.063 628.056 490.072C627.05 490.063 626.052 490.055 625.054 490.046Z" fill="#16393A"/>
<path fill-rule="evenodd" clip-rule="evenodd" d="M608.197 489.156C609.214 489.156 610.231 489.155 611.241 489.156C610.22 489.156 609.209 489.156 608.197 489.156Z" fill="#16393A"/>
<path fill-rule="evenodd" clip-rule="evenodd" d="M616.533 485.156C615.119 485.272 613.705 485.388 612.292 485.504C613.706 485.388 615.119 485.272 616.533 485.156Z" fill="#16393A"/>
<path fill-rule="evenodd" clip-rule="evenodd" d="M635.647 485.033C634.251 485.036 632.856 485.039 631.459 485.042C632.855 484.453 634.25 484.436 635.647 485.033Z" fill="#16393A"/>
<path fill-rule="evenodd" clip-rule="evenodd" d="M623.829 467.071C623.794 465.774 623.76 464.477 623.728 463.182C623.763 464.479 623.796 465.775 623.829 467.071Z" fill="#16393A"/>
<path fill-rule="evenodd" clip-rule="evenodd" d="M604.174 464.146C604.166 465.411 604.158 466.676 604.149 467.936C604.156 466.67 604.165 465.409 604.174 464.146Z" fill="#16393A"/>
<path fill-rule="evenodd" clip-rule="evenodd" d="M661.899 482.832C660.664 482.943 659.431 483.054 658.198 483.166C659.432 483.054 660.666 482.943 661.899 482.832Z" fill="#16393A"/>
<path fill-rule="evenodd" clip-rule="evenodd" d="M685.011 468.858C684.971 467.753 684.932 466.648 684.892 465.545C684.932 466.651 684.971 467.754 685.011 468.858Z" fill="#16393A"/>
<path fill-rule="evenodd" clip-rule="evenodd" d="M632.511 490.082C633.37 490.066 634.229 490.05 635.079 490.035C634.217 490.052 633.364 490.068 632.511 490.082Z" fill="#16393A"/>
<path fill-rule="evenodd" clip-rule="evenodd" d="M669.157 466.611C669.081 465.816 669.006 465.021 668.931 464.23C669.006 465.026 669.082 465.818 669.157 466.611Z" fill="#16393A"/>
<path fill-rule="evenodd" clip-rule="evenodd" d="M638.773 466.61C638.718 465.795 638.662 464.979 638.607 464.165C638.663 464.981 638.718 465.796 638.773 466.61Z" fill="#16393A"/>
<path fill-rule="evenodd" clip-rule="evenodd" d="M195.811 226.98C192.433 226.092 191.799 221.338 192.342 218.418C192.958 217.011 193.574 215.604 194.189 214.197C193.948 213.677 193.708 213.157 193.468 212.636C193.777 209.738 192.987 208.479 196.313 209.653C202.491 211.834 203.479 226.756 195.811 226.98Z" fill="#16393A"/>
<path fill-rule="evenodd" clip-rule="evenodd" d="M245.817 217.788C248.6 217.568 253.655 220.814 250.885 223.954C249.169 225.899 243.513 224.979 241.205 225.385C238.145 225.924 234.954 226.661 236.609 222.071C237.909 218.467 242.552 217.694 245.817 217.788Z" fill="#16393A"/>
<path fill-rule="evenodd" clip-rule="evenodd" d="M242.889 239.376C240.062 237.106 241.324 226.766 245.626 228.627C250.052 230.542 245.248 237.884 242.889 239.376Z" fill="#16393A"/>
<path fill-rule="evenodd" clip-rule="evenodd" d="M192.342 218.418C192.342 219.506 192.342 220.595 192.34 221.678C191.75 220.587 191.768 219.502 192.342 218.418Z" fill="#16393A"/>
<path fill-rule="evenodd" clip-rule="evenodd" d="M195.811 226.98C196.387 226.963 196.964 226.946 197.533 226.932C196.954 226.95 196.383 226.965 195.811 226.98Z" fill="#16393A"/>
<path fill-rule="evenodd" clip-rule="evenodd" d="M544.86 524.751C544.596 529.454 539.552 525.977 539.91 522.831C540.56 517.121 543.784 522.764 544.86 524.751Z" fill="#16393A"/>
</svg>
